<?xml version="1.0" encoding="UTF-8" standalone="no"?>
<!-- Created with Inkscape (http://www.inkscape.org/) -->

<svg
   xmlns:dc="http://purl.org/dc/elements/1.1/"
   xmlns:cc="http://creativecommons.org/ns#"
   xmlns:rdf="http://www.w3.org/1999/02/22-rdf-syntax-ns#"
   xmlns:svg="http://www.w3.org/2000/svg"
   xmlns="http://www.w3.org/2000/svg"
   xmlns:sodipodi="http://sodipodi.sourceforge.net/DTD/sodipodi-0.dtd"
   xmlns:inkscape="http://www.inkscape.org/namespaces/inkscape"
   width="210mm"
   height="297mm"
   id="svg2"
   version="1.1"
   inkscape:version="0.48.2 r9819"
   sodipodi:docname="kruemmungsradius.svg">
  <sodipodi:namedview
     id="base"
     pagecolor="#ffffff"
     bordercolor="#666666"
     borderopacity="1.0"
     inkscape:pageopacity="0.0"
     inkscape:pageshadow="2"
     inkscape:zoom="1.979899"
     inkscape:cx="540.51697"
     inkscape:cy="388.82936"
     inkscape:document-units="px"
     inkscape:current-layer="layer1"
     showgrid="true"
     inkscape:window-width="1600"
     inkscape:window-height="816"
     inkscape:window-x="-8"
     inkscape:window-y="-8"
     inkscape:window-maximized="1"
     inkscape:object-paths="true">
    <inkscape:grid
       type="xygrid"
       id="grid2985"
       empspacing="5"
       visible="true"
       enabled="true"
       snapvisiblegridlinesonly="true"
       spacingy="10px"
       spacingx="10px" />
  </sodipodi:namedview>
  <defs
     id="defs4">
    <marker
       inkscape:stockid="TriangleOutM"
       orient="auto"
       refY="0.0"
       refX="0.0"
       id="TriangleOutM"
       style="overflow:visible">
      <path
         id="path4706"
         d="M 5.77,0.0 L -2.88,5.0 L -2.88,-5.0 L 5.77,0.0 z "
         style="fill-rule:evenodd;stroke:#000000;stroke-width:1.0pt;marker-start:none"
         transform="scale(0.4)" />
    </marker>
    <marker
       inkscape:stockid="Arrow2Mend"
       orient="auto"
       refY="0.0"
       refX="0.0"
       id="Arrow2Mend"
       style="overflow:visible;">
      <path
         id="path4587"
         style="font-size:12.0;fill-rule:evenodd;stroke-width:0.62500000;stroke-linejoin:round;"
         d="M 8.7185878,4.0337352 L -2.2072895,0.016013256 L 8.7185884,-4.0017078 C 6.9730900,-1.6296469 6.9831476,1.6157441 8.7185878,4.0337352 z "
         transform="scale(0.6) rotate(180) translate(0,0)" />
    </marker>
    <marker
       inkscape:stockid="Arrow1Mend"
       orient="auto"
       refY="0.0"
       refX="0.0"
       id="Arrow1Mend"
       style="overflow:visible;">
      <path
         id="path4569"
         d="M 0.0,0.0 L 5.0,-5.0 L -12.5,0.0 L 5.0,5.0 L 0.0,0.0 z "
         style="fill-rule:evenodd;stroke:#000000;stroke-width:1.0pt;marker-start:none;"
         transform="scale(0.4) rotate(180) translate(10,0)" />
    </marker>
  </defs>
  <metadata
     id="metadata7">
    <rdf:RDF>
      <cc:Work
         rdf:about="">
        <dc:format>image/svg+xml</dc:format>
        <dc:type
           rdf:resource="http://purl.org/dc/dcmitype/StillImage" />
        <dc:title></dc:title>
      </cc:Work>
    </rdf:RDF>
  </metadata>
  <g
     inkscape:label="Ebene 1"
     inkscape:groupmode="layer"
     id="layer1">
    <path
       style="fill:none;stroke:#000000;stroke-width:0.5;stroke-miterlimit:4;stroke-dasharray:none"
       d="M 250.0 652.36218 l 400.0 0 M 450.0 752.36218 l 0 -200.0 M 250.0 751.36142966 C 251.049868766 751.139156599 252.099737533 750.88008603 253.149606299 750.584506114 C 254.199475066 750.288926197 255.249343832 749.956691486 256.299212598 749.588390672 C 257.349081365 749.220089857 258.398950131 748.815506071 259.448818898 748.375306254 C 260.498687664 747.935106437 261.54855643 747.459076441 262.598425197 746.947959967 C 263.648293963 746.436843494 264.69816273 745.89042959 265.748031496 745.309537062 C 266.797900262 744.728644534 267.847769029 744.113066095 268.897637795 743.463693825 C 269.947506562 742.814321556 270.997375328 742.1309523 272.047244094 741.414549422 C 273.097112861 740.698146543 274.146981627 739.948511469 275.196850394 739.166676699 C 276.24671916 738.384841929 277.296587927 737.570613915 278.346456693 736.725091988 C 279.396325459 735.87957006 280.446194226 735.002566128 281.496062992 734.095243901 C 282.545931759 733.187921673 283.595800525 732.250098937 284.645669291 731.283001179 C 285.695538058 730.315903422 286.745406824 729.319354716 287.795275591 728.294639595 C 288.845144357 727.269924473 289.895013123 726.216873685 290.94488189 725.136827943 C 291.994750656 724.0567822 293.044619423 722.949579307 294.094488189 721.816613162 C 295.144356955 720.683647017 296.194225722 719.524762841 297.244094488 718.341404609 C 298.293963255 717.158046376 299.343832021 715.950067071 300.393700787 714.718957521 C 301.443569554 713.487847971 302.49343832 712.23346925 303.543307087 710.957355713 C 304.593175853 709.681242176 305.643044619 708.383263298 306.692913386 707.064993536 C 307.742782152 705.746723774 308.792650919 704.408041293 309.842519685 703.050557142 C 310.892388451 701.693072992 311.942257218 700.316674299 312.992125984 698.923005107 C 314.041994751 697.529335915 315.091863517 696.118292567 316.141732283 694.691548431 C 317.19160105 693.264804295 318.241469816 691.82226516 319.291338583 690.365629987 C 320.341207349 688.908994814 321.391076115 687.438179048 322.440944882 685.95490345 C 323.490813648 684.471627851 324.540682415 682.975817711 325.590551181 681.469211749 C 326.640419948 679.962605786 327.690288714 678.445139306 328.74015748 676.918565106 C 329.790026247 675.391990905 330.839895013 673.856254446 331.88976378 672.313118695 C 332.939632546 670.769982944 333.989501312 669.21940364 335.039370079 667.663149983 C 336.089238845 666.106896326 337.139107612 664.544934432 338.188976378 662.979035789 C 339.238845144 661.413137145 340.288713911 659.84327832 341.338582677 658.271229133 C 342.388451444 656.699179945 343.43832021 655.124927469 344.488188976 653.550235906 C 345.538057743 651.975544342 346.587926509 650.4004113 347.637795276 648.826591426 C 348.687664042 647.252771551 349.737532808 645.680272992 350.787401575 644.110836927 C 351.837270341 642.541400862 352.887139108 640.975045958 353.937007874 639.413496038 C 354.98687664 637.851946119 356.036745407 636.29523033 357.086614173 634.745051294 C 358.13648294 633.194872258 359.186351706 631.651269536 360.236220472 630.115920747 C 361.286089239 628.580571958 362.335958005 627.053526989 363.385826772 625.536434715 C 364.435695538 624.01934244 365.485564304 622.512262962 366.535433071 621.01681273 C 367.585301837 619.521362497 368.635170604 618.037611692 369.68503937 616.567140732 C 370.734908136 615.096669772 371.784776903 613.639558763 372.834645669 612.197348563 C 373.884514436 610.755138362 374.934383202 609.327918822 375.984251969 607.917187803 C 377.034120735 606.506456784 378.083989501 605.11231368 379.133858268 603.736210014 C 380.183727034 602.360106348 381.233595801 601.002150837 382.283464567 599.663745422 C 383.333333333 598.325340007 384.3832021 597.006602486 385.433070866 595.708882094 C 386.482939633 594.411161702 387.532808399 593.134585053 388.582677165 591.880445662 C 389.632545932 590.626306271 390.682414698 589.394739289 391.732283465 588.186979624 C 392.782152231 586.979219959 393.832020997 585.795410995 394.881889764 584.636726279 C 395.93175853 583.478041563 396.981627297 582.344632393 398.031496063 581.237608334 C 399.081364829 580.130584276 400.131233596 579.050104203 401.181102362 577.997211226 C 402.230971129 576.944318249 403.280839895 575.919178461 404.330708661 574.922766189 C 405.380577428 573.926353918 406.430446194 572.958842106 407.480314961 572.021134123 C 408.530183727 571.08342614 409.580052493 570.175701394 410.62992126 569.298790279 C 411.679790026 568.421879163 412.729658793 567.575967151 413.779527559 566.761809809 C 414.829396325 565.947652467 415.879265092 565.165440918 416.929133858 564.415854213 C 417.979002625 563.666267509 419.028871391 562.949501997 420.078740157 562.266158701 C 421.128608924 561.582815405 422.17847769 560.933095456 423.228346457 560.317520509 C 424.278215223 559.701945562 425.32808399 559.120721086 426.377952756 558.574288199 C 427.427821522 558.027855312 428.477690289 557.516423361 429.527559055 557.040351948 C 430.577427822 556.564280534 431.627296588 556.123782416 432.677165354 555.719134872 C 433.727034121 555.314487329 434.776902887 554.945906053 435.826771654 554.613585386 C 436.87664042 554.281264719 437.926509186 553.985422809 438.976377953 553.726170622 C 440.026246719 553.466918435 441.076115486 553.244476088 442.125984252 553.058870925 C 443.175853018 552.873265762 444.225721785 552.724719378 445.275590551 552.613175434 C 446.325459318 552.50163149 447.375328084 552.427312563 448.42519685 552.390078758 C 449.475065617 552.352844954 450.524934383 552.352919333 451.57480315 552.390078758 C 452.624671916 552.427238184 453.674540682 552.501705704 454.724409449 552.613175434 C 455.774278215 552.724645164 456.824146982 552.873339644 457.874015748 553.058870925 C 458.923884514 553.244402206 459.973753281 553.46699182 461.023622047 553.726170622 C 462.073490814 553.985349424 463.12335958 554.281337444 464.173228346 554.613585386 C 465.223097113 554.945833328 466.272965879 555.314559231 467.322834646 555.719134872 C 468.372703412 556.123710513 469.422572178 556.564351454 470.472440945 557.040351948 C 471.522309711 557.516352441 472.572178478 558.02792509 473.622047244 558.574288199 C 474.67191601 559.120651307 475.721784777 559.702014044 476.771653543 560.317520509 C 477.82152231 560.933026975 478.871391076 561.582882436 479.921259843 562.266158701 C 480.971128609 562.949434966 482.020997375 563.666332942 483.070866142 564.415854213 C 484.120734908 565.165375485 485.170603675 565.947716154 486.220472441 566.761809809 C 487.270341207 567.575903465 488.320209974 568.421940963 489.37007874 569.298790279 C 490.419947507 570.175639595 491.469816273 571.083485914 492.519685039 572.021134123 C 493.569553806 572.958782332 494.619422572 573.926411533 495.669291339 574.922766189 C 496.719160105 575.919120846 497.769028871 576.944373577 498.818897638 577.997211226 C 499.868766404 579.050048876 500.918635171 580.130637193 501.968503937 581.237608334 C 503.018372703 582.344579476 504.06824147 583.478091951 505.118110236 584.636726279 C 506.167979003 585.795360607 507.217847769 586.979267705 508.267716535 588.186979624 C 509.317585302 589.394691543 510.367454068 590.62635127 511.417322835 591.880445662 C 512.467191601 593.134540054 513.517060367 594.411203852 514.566929134 595.708882094 C 515.6167979 597.006560336 516.666666667 598.325379214 517.716535433 599.663745422 C 518.766404199 601.002111629 519.816272966 602.360142526 520.866141732 603.736210014 C 521.916010499 605.112277503 522.965879265 606.506489851 524.015748031 607.917187803 C 525.065616798 609.327885755 526.115485564 610.755168245 527.165354331 612.197348563 C 528.215223097 613.63952888 529.265091864 615.096696404 530.31496063 616.567140732 C 531.364829396 618.03758506 532.414698163 619.521385818 533.464566929 621.01681273 C 534.514435696 622.512239641 535.564304462 624.019362399 536.614173228 625.536434715 C 537.664041995 627.05350703 538.713910761 628.580588509 539.763779528 630.115920747 C 540.813648294 631.651252985 541.86351706 633.194885366 542.913385827 634.745051294 C 543.963254593 636.295217223 545.01312336 637.851955752 546.062992126 639.413496038 C 547.112860892 640.975036324 548.162729659 642.541407001 549.212598425 644.110836927 C 550.262467192 645.680266853 551.312335958 647.252774182 552.362204724 648.826591426 C 553.412073491 650.400408669 554.461942257 651.975543458 555.511811024 653.550235906 C 556.56167979 655.124928353 557.611548556 656.699175549 558.661417323 658.271229133 C 559.711286089 659.843282717 560.761154856 661.413129246 561.811023622 662.979035789 C 562.860892388 664.544942331 563.910761155 666.106884942 564.960629921 667.663149983 C 566.010498688 669.219415024 567.060367454 670.769968101 568.11023622 672.313118695 C 569.160104987 673.85626929 570.209973753 675.391972635 571.25984252 676.918565106 C 572.309711286 678.445157576 573.359580052 679.962584131 574.409448819 681.469211749 C 575.459317585 682.975839367 576.509186352 684.471602858 577.559055118 685.95490345 C 578.608923885 687.438204041 579.658792651 688.90896654 580.708661417 690.365629987 C 581.758530184 691.822293435 582.80839895 693.264772802 583.858267717 694.691548431 C 584.908136483 696.11832406 585.958005249 697.529301274 587.007874016 698.923005107 C 588.057742782 700.316708941 589.107611549 701.69303528 590.157480315 703.050557142 C 591.207349081 704.408079005 592.257217848 705.746683075 593.307086614 707.064993536 C 594.356955381 708.383303996 595.406824147 709.681198582 596.456692913 710.957355713 C 597.50656168 712.233512845 598.556430446 713.487801577 599.606299213 714.718957521 C 600.656167979 715.950113464 601.706036745 717.157997288 602.755905512 718.341404609 C 603.805774278 719.52481193 604.855643045 720.683595343 605.905511811 721.816613162 C 606.955380577 722.949630981 608.005249344 724.056728056 609.05511811 725.136827943 C 610.104986877 726.21692783 611.154855643 727.269867979 612.204724409 728.294639595 C 613.254593176 729.31941121 614.304461942 730.315844705 615.354330709 731.283001179 C 616.404199475 732.250157654 617.454068241 733.187860863 618.503937008 734.095243901 C 619.553805774 735.002626938 620.603674541 735.879507294 621.653543307 736.725091988 C 622.703412073 737.570676682 623.75328084 738.384777347 624.803149606 739.166676699 C 625.853018373 739.948576052 626.902887139 740.698080288 627.952755906 741.414549422 C 629.002624672 742.131018555 630.052493438 742.814253776 631.102362205 743.463693825 C 632.152230971 744.113133874 633.202099738 744.728575381 634.251968504 745.309537062 C 635.30183727 745.890498743 636.351706037 746.436773122 637.401574803 746.947959967 C 638.45144357 747.459146813 639.501312336 747.935035003 640.551181102 748.375306254 C 641.601049869 748.815577504 642.650918635 749.220017521 643.700787402 749.588390672 C 644.750656168 749.956763823 645.800524934 750.28885312 646.850393701 750.584506114 C 647.900262467 750.880159108 648.950131234 751.139156599 650.0 751.36142966"
       title="cos(x)"
       id="path3399" />
    <path
       id="path4186"
       title="cos(x)"
       d=" M 250.0 751.36142966 C 251.049868766 751.139156599 252.099737533 750.88008603 253.149606299 750.584506114 C 254.199475066 750.288926197 255.249343832 749.956691486 256.299212598 749.588390672 C 257.349081365 749.220089857 258.398950131 748.815506071 259.448818898 748.375306254 C 260.498687664 747.935106437 261.54855643 747.459076441 262.598425197 746.947959967 C 263.648293963 746.436843494 264.69816273 745.89042959 265.748031496 745.309537062 C 266.797900262 744.728644534 267.847769029 744.113066095 268.897637795 743.463693825 C 269.947506562 742.814321556 270.997375328 742.1309523 272.047244094 741.414549422 C 273.097112861 740.698146543 274.146981627 739.948511469 275.196850394 739.166676699 C 276.24671916 738.384841929 277.296587927 737.570613915 278.346456693 736.725091988 C 279.396325459 735.87957006 280.446194226 735.002566128 281.496062992 734.095243901 C 282.545931759 733.187921673 283.595800525 732.250098937 284.645669291 731.283001179 C 285.695538058 730.315903422 286.745406824 729.319354716 287.795275591 728.294639595 C 288.845144357 727.269924473 289.895013123 726.216873685 290.94488189 725.136827943 C 291.994750656 724.0567822 293.044619423 722.949579307 294.094488189 721.816613162 C 295.144356955 720.683647017 296.194225722 719.524762841 297.244094488 718.341404609 C 298.293963255 717.158046376 299.343832021 715.950067071 300.393700787 714.718957521 C 301.443569554 713.487847971 302.49343832 712.23346925 303.543307087 710.957355713 C 304.593175853 709.681242176 305.643044619 708.383263298 306.692913386 707.064993536 C 307.742782152 705.746723774 308.792650919 704.408041293 309.842519685 703.050557142 C 310.892388451 701.693072992 311.942257218 700.316674299 312.992125984 698.923005107 C 314.041994751 697.529335915 315.091863517 696.118292567 316.141732283 694.691548431 C 317.19160105 693.264804295 318.241469816 691.82226516 319.291338583 690.365629987 C 320.341207349 688.908994814 321.391076115 687.438179048 322.440944882 685.95490345 C 323.490813648 684.471627851 324.540682415 682.975817711 325.590551181 681.469211749 C 326.640419948 679.962605786 327.690288714 678.445139306 328.74015748 676.918565106 C 329.790026247 675.391990905 330.839895013 673.856254446 331.88976378 672.313118695 C 332.939632546 670.769982944 333.989501312 669.21940364 335.039370079 667.663149983 C 336.089238845 666.106896326 337.139107612 664.544934432 338.188976378 662.979035789 C 339.238845144 661.413137145 340.288713911 659.84327832 341.338582677 658.271229133 C 342.388451444 656.699179945 343.43832021 655.124927469 344.488188976 653.550235906 C 345.538057743 651.975544342 346.587926509 650.4004113 347.637795276 648.826591426 C 348.687664042 647.252771551 349.737532808 645.680272992 350.787401575 644.110836927 C 351.837270341 642.541400862 352.887139108 640.975045958 353.937007874 639.413496038 C 354.98687664 637.851946119 356.036745407 636.29523033 357.086614173 634.745051294 C 358.13648294 633.194872258 359.186351706 631.651269536 360.236220472 630.115920747 C 361.286089239 628.580571958 362.335958005 627.053526989 363.385826772 625.536434715 C 364.435695538 624.01934244 365.485564304 622.512262962 366.535433071 621.01681273 C 367.585301837 619.521362497 368.635170604 618.037611692 369.68503937 616.567140732 C 370.734908136 615.096669772 371.784776903 613.639558763 372.834645669 612.197348563 C 373.884514436 610.755138362 374.934383202 609.327918822 375.984251969 607.917187803 C 377.034120735 606.506456784 378.083989501 605.11231368 379.133858268 603.736210014 C 380.183727034 602.360106348 381.233595801 601.002150837 382.283464567 599.663745422 C 383.333333333 598.325340007 384.3832021 597.006602486 385.433070866 595.708882094 C 386.482939633 594.411161702 387.532808399 593.134585053 388.582677165 591.880445662 C 389.632545932 590.626306271 390.682414698 589.394739289 391.732283465 588.186979624 C 392.782152231 586.979219959 393.832020997 585.795410995 394.881889764 584.636726279 C 395.93175853 583.478041563 396.981627297 582.344632393 398.031496063 581.237608334 C 399.081364829 580.130584276 400.131233596 579.050104203 401.181102362 577.997211226 C 402.230971129 576.944318249 403.280839895 575.919178461 404.330708661 574.922766189 C 405.380577428 573.926353918 406.430446194 572.958842106 407.480314961 572.021134123 C 408.530183727 571.08342614 409.580052493 570.175701394 410.62992126 569.298790279 C 411.679790026 568.421879163 412.729658793 567.575967151 413.779527559 566.761809809 C 414.829396325 565.947652467 415.879265092 565.165440918 416.929133858 564.415854213 C 417.979002625 563.666267509 419.028871391 562.949501997 420.078740157 562.266158701 C 421.128608924 561.582815405 422.17847769 560.933095456 423.228346457 560.317520509 C 424.278215223 559.701945562 425.32808399 559.120721086 426.377952756 558.574288199 C 427.427821522 558.027855312 428.477690289 557.516423361 429.527559055 557.040351948 C 430.577427822 556.564280534 431.627296588 556.123782416 432.677165354 555.719134872 C 433.727034121 555.314487329 434.776902887 554.945906053 435.826771654 554.613585386 C 436.87664042 554.281264719 437.926509186 553.985422809 438.976377953 553.726170622 C 440.026246719 553.466918435 441.076115486 553.244476088 442.125984252 553.058870925 C 443.175853018 552.873265762 444.225721785 552.724719378 445.275590551 552.613175434 C 446.325459318 552.50163149 447.375328084 552.427312563 448.42519685 552.390078758 C 449.475065617 552.352844954 450.524934383 552.352919333 451.57480315 552.390078758 C 452.624671916 552.427238184 453.674540682 552.501705704 454.724409449 552.613175434 C 455.774278215 552.724645164 456.824146982 552.873339644 457.874015748 553.058870925 C 458.923884514 553.244402206 459.973753281 553.46699182 461.023622047 553.726170622 C 462.073490814 553.985349424 463.12335958 554.281337444 464.173228346 554.613585386 C 465.223097113 554.945833328 466.272965879 555.314559231 467.322834646 555.719134872 C 468.372703412 556.123710513 469.422572178 556.564351454 470.472440945 557.040351948 C 471.522309711 557.516352441 472.572178478 558.02792509 473.622047244 558.574288199 C 474.67191601 559.120651307 475.721784777 559.702014044 476.771653543 560.317520509 C 477.82152231 560.933026975 478.871391076 561.582882436 479.921259843 562.266158701 C 480.971128609 562.949434966 482.020997375 563.666332942 483.070866142 564.415854213 C 484.120734908 565.165375485 485.170603675 565.947716154 486.220472441 566.761809809 C 487.270341207 567.575903465 488.320209974 568.421940963 489.37007874 569.298790279 C 490.419947507 570.175639595 491.469816273 571.083485914 492.519685039 572.021134123 C 493.569553806 572.958782332 494.619422572 573.926411533 495.669291339 574.922766189 C 496.719160105 575.919120846 497.769028871 576.944373577 498.818897638 577.997211226 C 499.868766404 579.050048876 500.918635171 580.130637193 501.968503937 581.237608334 C 503.018372703 582.344579476 504.06824147 583.478091951 505.118110236 584.636726279 C 506.167979003 585.795360607 507.217847769 586.979267705 508.267716535 588.186979624 C 509.317585302 589.394691543 510.367454068 590.62635127 511.417322835 591.880445662 C 512.467191601 593.134540054 513.517060367 594.411203852 514.566929134 595.708882094 C 515.6167979 597.006560336 516.666666667 598.325379214 517.716535433 599.663745422 C 518.766404199 601.002111629 519.816272966 602.360142526 520.866141732 603.736210014 C 521.916010499 605.112277503 522.965879265 606.506489851 524.015748031 607.917187803 C 525.065616798 609.327885755 526.115485564 610.755168245 527.165354331 612.197348563 C 528.215223097 613.63952888 529.265091864 615.096696404 530.31496063 616.567140732 C 531.364829396 618.03758506 532.414698163 619.521385818 533.464566929 621.01681273 C 534.514435696 622.512239641 535.564304462 624.019362399 536.614173228 625.536434715 C 537.664041995 627.05350703 538.713910761 628.580588509 539.763779528 630.115920747 C 540.813648294 631.651252985 541.86351706 633.194885366 542.913385827 634.745051294 C 543.963254593 636.295217223 545.01312336 637.851955752 546.062992126 639.413496038 C 547.112860892 640.975036324 548.162729659 642.541407001 549.212598425 644.110836927 C 550.262467192 645.680266853 551.312335958 647.252774182 552.362204724 648.826591426 C 553.412073491 650.400408669 554.461942257 651.975543458 555.511811024 653.550235906 C 556.56167979 655.124928353 557.611548556 656.699175549 558.661417323 658.271229133 C 559.711286089 659.843282717 560.761154856 661.413129246 561.811023622 662.979035789 C 562.860892388 664.544942331 563.910761155 666.106884942 564.960629921 667.663149983 C 566.010498688 669.219415024 567.060367454 670.769968101 568.11023622 672.313118695 C 569.160104987 673.85626929 570.209973753 675.391972635 571.25984252 676.918565106 C 572.309711286 678.445157576 573.359580052 679.962584131 574.409448819 681.469211749 C 575.459317585 682.975839367 576.509186352 684.471602858 577.559055118 685.95490345 C 578.608923885 687.438204041 579.658792651 688.90896654 580.708661417 690.365629987 C 581.758530184 691.822293435 582.80839895 693.264772802 583.858267717 694.691548431 C 584.908136483 696.11832406 585.958005249 697.529301274 587.007874016 698.923005107 C 588.057742782 700.316708941 589.107611549 701.69303528 590.157480315 703.050557142 C 591.207349081 704.408079005 592.257217848 705.746683075 593.307086614 707.064993536 C 594.356955381 708.383303996 595.406824147 709.681198582 596.456692913 710.957355713 C 597.50656168 712.233512845 598.556430446 713.487801577 599.606299213 714.718957521 C 600.656167979 715.950113464 601.706036745 717.157997288 602.755905512 718.341404609 C 603.805774278 719.52481193 604.855643045 720.683595343 605.905511811 721.816613162 C 606.955380577 722.949630981 608.005249344 724.056728056 609.05511811 725.136827943 C 610.104986877 726.21692783 611.154855643 727.269867979 612.204724409 728.294639595 C 613.254593176 729.31941121 614.304461942 730.315844705 615.354330709 731.283001179 C 616.404199475 732.250157654 617.454068241 733.187860863 618.503937008 734.095243901 C 619.553805774 735.002626938 620.603674541 735.879507294 621.653543307 736.725091988 C 622.703412073 737.570676682 623.75328084 738.384777347 624.803149606 739.166676699 C 625.853018373 739.948576052 626.902887139 740.698080288 627.952755906 741.414549422 C 629.002624672 742.131018555 630.052493438 742.814253776 631.102362205 743.463693825 C 632.152230971 744.113133874 633.202099738 744.728575381 634.251968504 745.309537062 C 635.30183727 745.890498743 636.351706037 746.436773122 637.401574803 746.947959967 C 638.45144357 747.459146813 639.501312336 747.935035003 640.551181102 748.375306254 C 641.601049869 748.815577504 642.650918635 749.220017521 643.700787402 749.588390672 C 644.750656168 749.956763823 645.800524934 750.28885312 646.850393701 750.584506114 C 647.900262467 750.880159108 648.950131234 751.139156599 650.0 751.36142966"
       style="fill:none;stroke:#cccccc;stroke-width:2;stroke-miterlimit:4;stroke-dasharray:none;stroke-opacity:1" />
    <path
       d="m 500,602.36218 a 50,50 0 1 1 -100,0 50,50 0 1 1 100,0 z"
       sodipodi:ry="50"
       sodipodi:rx="50"
       sodipodi:cy="602.36218"
       sodipodi:cx="450"
       id="path3406"
       style="fill:none;stroke:#000000;stroke-width:2;stroke-miterlimit:4;stroke-dasharray:none"
       sodipodi:type="arc" />
    <path
       style="fill:none;stroke:#000000;stroke-width:1.50000000000000000;stroke-linecap:butt;stroke-linejoin:miter;stroke-opacity:1;stroke-miterlimit:4;stroke-dasharray:none;marker-start:none;marker-mid:none;marker-end:url(#Arrow2Mend)"
       d="m 450,602.36218 44.21834,-23.36109"
       id="path4195"
       inkscape:connector-curvature="0" />
  </g>
</svg>
