<?xml version="1.0" encoding="UTF-8" standalone="no"?>
<!-- Created with Inkscape (http://www.inkscape.org/) -->

<svg
   xmlns:osb="http://www.openswatchbook.org/uri/2009/osb"
   xmlns:dc="http://purl.org/dc/elements/1.1/"
   xmlns:cc="http://creativecommons.org/ns#"
   xmlns:rdf="http://www.w3.org/1999/02/22-rdf-syntax-ns#"
   xmlns:svg="http://www.w3.org/2000/svg"
   xmlns="http://www.w3.org/2000/svg"
   xmlns:sodipodi="http://sodipodi.sourceforge.net/DTD/sodipodi-0.dtd"
   xmlns:inkscape="http://www.inkscape.org/namespaces/inkscape"
   width="1052.3622"
   height="744.09448"
   id="svg2"
   version="1.1"
   inkscape:version="0.48.3.1 r9886"
   sodipodi:docname="polarkoordinaten.svg">
  <sodipodi:namedview
     id="base"
     pagecolor="#ffffff"
     bordercolor="#666666"
     borderopacity="1.0"
     inkscape:pageopacity="0.0"
     inkscape:pageshadow="2"
     inkscape:zoom="2.8"
     inkscape:cx="793.69734"
     inkscape:cy="489.28102"
     inkscape:document-units="px"
     inkscape:current-layer="layer1"
     showgrid="true"
     inkscape:window-width="1598"
     inkscape:window-height="879"
     inkscape:window-x="0"
     inkscape:window-y="19"
     inkscape:window-maximized="1">
    <inkscape:grid
       spacingy="10px"
       spacingx="10px"
       snapvisiblegridlinesonly="true"
       enabled="true"
       visible="true"
       empspacing="5"
       id="grid2985"
       type="xygrid" />
  </sodipodi:namedview>
  <defs
     id="defs4">
    <linearGradient
       id="linearGradient4968"
       osb:paint="solid">
      <stop
         style="stop-color:#000000;stop-opacity:1;"
         offset="0"
         id="stop4970" />
    </linearGradient>
    <marker
       style="overflow:visible;"
       id="Arrow1Lend"
       refX="0.0"
       refY="0.0"
       orient="auto"
       inkscape:stockid="Arrow1Lend">
      <path
         transform="scale(0.8) rotate(180) translate(12.5,0)"
         style="fill-rule:evenodd;stroke:#000000;stroke-width:1.0pt;"
         d="M 0.0,0.0 L 5.0,-5.0 L -12.5,0.0 L 5.0,5.0 L 0.0,0.0 z "
         id="path3967" />
    </marker>
    <marker
       style="overflow:visible"
       id="Arrow1Lend-3"
       refX="0"
       refY="0"
       orient="auto"
       inkscape:stockid="Arrow1Lend">
      <path
         transform="matrix(-0.8,0,0,-0.8,-10,0)"
         style="fill-rule:evenodd;stroke:#000000;stroke-width:1pt"
         d="M 0,0 5,-5 -12.5,0 5,5 0,0 z"
         id="path3967-4"
         inkscape:connector-curvature="0" />
    </marker>
    <marker
       style="overflow:visible"
       id="marker4598"
       refX="0"
       refY="0"
       orient="auto"
       inkscape:stockid="Arrow1Lend">
      <path
         transform="matrix(-0.8,0,0,-0.8,-10,0)"
         style="fill-rule:evenodd;stroke:#000000;stroke-width:1pt"
         d="M 0,0 5,-5 -12.5,0 5,5 0,0 z"
         id="path4600"
         inkscape:connector-curvature="0" />
    </marker>
  </defs>
  <metadata
     id="metadata7">
    <rdf:RDF>
      <cc:Work
         rdf:about="">
        <dc:format>image/svg+xml</dc:format>
        <dc:type
           rdf:resource="http://purl.org/dc/dcmitype/StillImage" />
        <dc:title></dc:title>
      </cc:Work>
    </rdf:RDF>
  </metadata>
  <g
     transform="translate(0,-308.2677)"
     id="layer1"
     inkscape:groupmode="layer"
     inkscape:label="Ebene 1">
    <path
       transform="translate(0,308.2677)"
       inkscape:connector-curvature="0"
       id="path2987"
       d="m 50,644.09448 450,0"
       style="fill:none;stroke:#000000;stroke-width:2;stroke-linecap:butt;stroke-linejoin:miter;stroke-opacity:1;marker-start:none;marker-end:url(#Arrow1Lend);stroke-miterlimit:4;stroke-dasharray:none" />
    <path
       transform="translate(0,308.2677)"
       inkscape:connector-curvature="0"
       id="path2989"
       d="m 100,694.09448 0,-400"
       style="fill:none;stroke:#000000;stroke-width:2;stroke-linecap:butt;stroke-linejoin:miter;stroke-opacity:1;marker-end:url(#Arrow1Lend);stroke-miterlimit:4;stroke-dasharray:none" />
    <path
       inkscape:connector-curvature="0"
       id="path2987-3"
       d="m 550,952.36218 450,0"
       style="fill:none;stroke:#000000;stroke-width:2;stroke-linecap:butt;stroke-linejoin:miter;stroke-miterlimit:4;stroke-opacity:1;stroke-dasharray:none;marker-start:none;marker-end:url(#Arrow1Lend)" />
    <path
       inkscape:connector-curvature="0"
       id="path2989-2"
       d="m 600,1002.3622 0,-400.00004"
       style="fill:none;stroke:#000000;stroke-width:2;stroke-linecap:butt;stroke-linejoin:miter;stroke-miterlimit:4;stroke-opacity:1;stroke-dasharray:none;marker-end:url(#Arrow1Lend)" />
    <path
       sodipodi:open="true"
       sodipodi:end="7.8509876"
       sodipodi:start="1.5801912"
       transform="translate(9.9700597,318.26774)"
       d="m 339.90605,394.09404 c -5.5226,-0.0519 -9.95749,-4.5709 -9.90561,-10.0935 0.0519,-5.52261 4.5709,-9.9575 10.09351,-9.90562 5.5226,0.0519 9.95749,4.57091 9.90561,10.09351 -0.0514,5.47429 -4.49512,9.88962 -9.96962,9.90601"
       sodipodi:ry="10"
       sodipodi:rx="10"
       sodipodi:cy="384.09448"
       sodipodi:cx="340"
       id="path4625"
       style="opacity:1;fill:#000000;fill-opacity:1;stroke:#000000;stroke-width:2;stroke-miterlimit:4;stroke-opacity:1;stroke-dasharray:none;stroke-dashoffset:0"
       sodipodi:type="arc" />
    <path
       transform="translate(0,308.2677)"
       inkscape:connector-curvature="0"
       id="path4627"
       d="m 350,664.09448 0,-270 -270,0"
       style="fill:none;stroke:#000000;stroke-width:2;stroke-linecap:butt;stroke-linejoin:miter;stroke-opacity:1;stroke-miterlimit:4;stroke-dasharray:6,6;stroke-dashoffset:0" />
    <g
       id="g4647"
       transform="translate(23.908665,655.46257)">
      <g
         word-spacing="normal"
         letter-spacing="normal"
         font-size-adjust="none"
         font-stretch="normal"
         font-weight="normal"
         font-variant="normal"
         font-style="normal"
         stroke-miterlimit="10.433"
         xml:space="preserve"
         transform="matrix(1.0629921,0,0,-1.0629921,-186.02362,789.27165)"
         id="content"
         style="font-style:normal;font-variant:normal;font-weight:normal;font-stretch:normal;letter-spacing:normal;word-spacing:normal;text-anchor:start;fill:none;stroke:#000000;stroke-linecap:butt;stroke-linejoin:miter;stroke-miterlimit:10.43299961;stroke-opacity:1;stroke-dasharray:none;stroke-dashoffset:0"><path
           id="path4650"
           d="m 472.16,421.25 0.03,0.13 0.04,0.15 0.04,0.16 0.04,0.18 0.06,0.19 0.06,0.21 0.06,0.22 0.07,0.22 0.08,0.23 0.09,0.24 0.1,0.25 0.1,0.24 0.11,0.25 0.12,0.25 0.13,0.25 0.14,0.25 0.15,0.24 0.15,0.24 0.17,0.23 0.18,0.22 0.18,0.22 0.2,0.2 0.21,0.19 0.22,0.18 0.23,0.16 0.25,0.14 0.12,0.07 0.13,0.06 0.14,0.05 0.13,0.05 0.14,0.05 0.14,0.04 0.15,0.03 0.15,0.03 0.15,0.02 0.16,0.02 0.16,0.01 0.16,0 c 0.25,0 1.44,0 2.48,-0.64 -1.39,-0.25 -2.39,-1.5 -2.39,-2.69 0,-0.79 0.55,-1.75 1.89,-1.75 1.1,0 2.69,0.89 2.69,2.89 0,2.6 -2.94,3.28 -4.63,3.28 -2.89,0 -4.64,-2.64 -5.23,-3.78 -1.25,3.28 -3.94,3.78 -5.37,3.78 -5.19,0 -8.04,-6.42 -8.04,-7.67 0,-0.5 0.5,-0.5 0.61,-0.5 0.39,0 0.55,0.11 0.64,0.55 1.69,5.28 4.99,6.53 6.68,6.53 0.95,0 2.68,-0.44 2.68,-3.33 0,-1.54 -0.84,-4.89 -2.68,-11.86 -0.8,-3.09 -2.54,-5.18 -4.74,-5.18 -0.3,0 -1.44,0 -2.48,0.65 1.25,0.24 2.34,1.28 2.34,2.69 0,1.34 -1.09,1.73 -1.84,1.73 -1.5,0 -2.75,-1.29 -2.75,-2.89 0,-2.28 2.5,-3.28 4.68,-3.28 3.3,0 5.08,3.49 5.24,3.78 0.59,-1.84 2.39,-3.78 5.37,-3.78 5.14,0 7.99,6.42 7.99,7.67 0,0.5 -0.45,0.5 -0.61,0.5 -0.44,0 -0.55,-0.2 -0.64,-0.54 -1.64,-5.33 -5.03,-6.53 -6.63,-6.53 -1.95,0 -2.75,1.59 -2.75,3.29 0,1.1 0.3,2.19 0.86,4.38 z"
           inkscape:connector-curvature="0"
           style="fill:#000000;stroke-width:0" /><path
           id="path4652"
           d="m 501.95,409.87 -0.01,0.71 -0.02,0.68 -0.03,0.66 -0.04,0.64 -0.06,0.62 -0.07,0.6 -0.09,0.57 -0.11,0.56 -0.13,0.55 -0.15,0.53 -0.17,0.51 -0.19,0.5 -0.21,0.49 -0.24,0.48 -0.26,0.47 -0.14,0.23 -0.15,0.23 c -1.08,1.61 -3.23,3 -6.03,3 v -0.98 c 1.89,0 3.7,-1.14 4.33,-3.17 0.56,-1.88 0.59,-4.39 0.59,-7.43 0,-2.57 0,-5.15 -0.45,-7.34 -0.7,-3.17 -3.06,-3.94 -4.47,-3.94 h 0 c -1.59,0 -3.72,0.94 -4.42,3.8 -0.48,2.05 -0.48,4.91 -0.48,7.48 0,2.55 0,5.21 0.51,7.11 0.74,2.75 2.97,3.49 4.39,3.49 v 0.98 c -8.08,0 -8.08,-9.51 -8.08,-12.03 0,-2.5 0,-11.81 8.08,-11.81 8.1,0 8.1,9.31 8.1,11.81 z"
           inkscape:connector-curvature="0"
           style="fill:#000000;stroke-width:0" /></g>    </g>
    <g
       transform="translate(-119.74369,311.64367)"
       id="g4696">
      <g
         style="font-style:normal;font-variant:normal;font-weight:normal;font-stretch:normal;letter-spacing:normal;word-spacing:normal;text-anchor:start;fill:none;stroke:#000000;stroke-linecap:butt;stroke-linejoin:miter;stroke-miterlimit:10.43299961;stroke-opacity:1;stroke-dasharray:none;stroke-dashoffset:0"
         id="g4698"
         transform="matrix(1.0629921,0,0,-1.0629921,-186.02362,789.27165)"
         xml:space="preserve"
         stroke-miterlimit="10.433"
         font-style="normal"
         font-variant="normal"
         font-weight="normal"
         font-stretch="normal"
         font-size-adjust="none"
         letter-spacing="normal"
         word-spacing="normal"><path
           style="fill:#000000;stroke-width:0"
           inkscape:connector-curvature="0"
           d="m 473.8,426.12 h 4.28 c 1,0 1.5,0 1.5,1 0,0.55 -0.5,0.55 -1.34,0.55 h -4.14 l 1.04,5.69 c 0.21,1.04 0.91,4.57 1.21,5.17 0.45,0.95 1.29,1.7 2.34,1.7 0.19,0 1.49,0 2.44,-0.91 -2.19,-0.18 -2.69,-1.93 -2.69,-2.68 0,-1.14 0.89,-1.74 1.85,-1.74 1.29,0 2.73,1.1 2.73,2.99 0,2.29 -2.3,3.43 -4.33,3.43 -1.7,0 -4.84,-0.89 -6.33,-5.82 -0.29,-1.05 -0.45,-1.55 -1.64,-7.83 h -3.43 c -0.96,0 -1.5,0 -1.5,-0.94 0,-0.61 0.45,-0.61 1.39,-0.61 h 3.29 l -3.75,-19.67 c -0.89,-4.83 -1.73,-9.38 -4.33,-9.38 -0.2,0 -1.43,0 -2.39,0.91 2.3,0.14 2.74,1.94 2.74,2.69 0,1.14 -0.89,1.75 -1.85,1.75 -1.29,0 -2.73,-1.1 -2.73,-3 0,-2.24 2.19,-3.44 4.23,-3.44 2.74,0 4.74,2.94 5.63,4.84 1.59,3.14 2.75,9.16 2.8,9.52 z"
           id="path4700" /><path
           style="fill:#000000;stroke-width:0"
           inkscape:connector-curvature="0"
           d="m 501.77,394.25 0,0.02 -0.01,0.03 0,0.01 0,0.02 0,0.01 -0.01,0.02 0,0.01 -0.01,0.02 -0.01,0.02 -0.01,0.02 -0.01,0.02 -0.01,0.03 -0.02,0.02 -0.02,0.03 -0.02,0.03 -0.02,0.03 -0.03,0.03 -0.03,0.04 -0.02,0.02 -0.01,0.02 -0.02,0.02 -0.02,0.02 -0.02,0.02 -0.02,0.03 -0.02,0.02 -0.02,0.02 -0.02,0.03 -0.03,0.02 -0.02,0.03 -0.03,0.03 -0.02,0.03 -0.03,0.03 -0.03,0.03 -0.03,0.03 -0.03,0.03 -0.03,0.03 -0.04,0.04 -0.03,0.03 -0.03,0.04 -0.04,0.03 -0.04,0.04 -0.04,0.04 c -6.22,6.28 -7.81,15.69 -7.81,23.31 0,8.67 1.89,17.35 8.01,23.56 0.65,0.61 0.65,0.71 0.65,0.86 0,0.35 -0.19,0.49 -0.49,0.49 -0.5,0 -4.98,-3.38 -7.92,-9.7 -2.55,-5.49 -3.14,-11.02 -3.14,-15.21 0,-3.89 0.55,-9.9 3.28,-15.54 2.98,-6.13 7.28,-9.36 7.78,-9.36 0.3,0 0.49,0.14 0.49,0.5 z"
           id="path4702" /><path
           style="fill:#000000;stroke-width:0"
           inkscape:connector-curvature="0"
           d="m 521.24,421.25 0.03,0.13 0.03,0.15 0.05,0.16 0.04,0.18 0.05,0.19 0.06,0.21 0.07,0.22 0.07,0.22 0.08,0.23 0.09,0.24 0.09,0.25 0.11,0.24 0.11,0.25 0.12,0.25 0.13,0.25 0.14,0.25 0.14,0.24 0.16,0.24 0.17,0.23 0.17,0.22 0.19,0.22 0.2,0.2 0.21,0.19 0.22,0.18 0.23,0.16 0.25,0.14 0.12,0.07 0.13,0.06 0.14,0.05 0.13,0.05 0.14,0.05 0.14,0.04 0.15,0.03 0.15,0.03 0.15,0.02 0.15,0.02 0.16,0.01 0.17,0 c 0.25,0 1.43,0 2.48,-0.64 -1.39,-0.25 -2.39,-1.5 -2.39,-2.69 0,-0.79 0.55,-1.75 1.89,-1.75 1.09,0 2.69,0.89 2.69,2.89 0,2.6 -2.94,3.28 -4.63,3.28 -2.89,0 -4.64,-2.64 -5.23,-3.78 -1.25,3.28 -3.94,3.78 -5.38,3.78 -5.18,0 -8.03,-6.42 -8.03,-7.67 0,-0.5 0.5,-0.5 0.61,-0.5 0.39,0 0.55,0.11 0.64,0.55 1.69,5.28 4.99,6.53 6.67,6.53 0.96,0 2.69,-0.44 2.69,-3.33 0,-1.54 -0.84,-4.89 -2.69,-11.86 -0.79,-3.09 -2.53,-5.18 -4.73,-5.18 -0.3,0 -1.44,0 -2.48,0.65 1.25,0.24 2.34,1.28 2.34,2.69 0,1.34 -1.09,1.73 -1.84,1.73 -1.5,0 -2.75,-1.29 -2.75,-2.89 0,-2.28 2.5,-3.28 4.68,-3.28 3.3,0 5.08,3.49 5.24,3.78 0.59,-1.84 2.39,-3.78 5.37,-3.78 5.14,0 7.99,6.42 7.99,7.67 0,0.5 -0.46,0.5 -0.61,0.5 -0.44,0 -0.55,-0.2 -0.64,-0.54 -1.64,-5.33 -5.04,-6.53 -6.63,-6.53 -1.95,0 -2.75,1.59 -2.75,3.29 0,1.1 0.3,2.19 0.86,4.38 z"
           id="path4704" /><path
           style="fill:#000000;stroke-width:0"
           inkscape:connector-curvature="0"
           d="m 551.02,409.87 0,0.71 -0.02,0.68 -0.03,0.66 -0.04,0.64 -0.06,0.62 -0.08,0.6 -0.09,0.57 -0.1,0.56 -0.13,0.55 -0.15,0.53 -0.17,0.51 -0.19,0.5 -0.21,0.49 -0.24,0.48 -0.26,0.47 -0.14,0.23 -0.15,0.23 c -1.08,1.61 -3.23,3 -6.03,3 v -0.98 c 1.89,0 3.7,-1.14 4.33,-3.17 0.56,-1.88 0.59,-4.39 0.59,-7.43 0,-2.57 0,-5.15 -0.45,-7.34 -0.7,-3.17 -3.06,-3.94 -4.47,-3.94 h 0 c -1.59,0 -3.72,0.94 -4.42,3.8 -0.49,2.05 -0.49,4.91 -0.49,7.48 0,2.55 0,5.21 0.52,7.11 0.73,2.75 2.97,3.49 4.39,3.49 v 0.98 c -8.08,0 -8.08,-9.51 -8.08,-12.03 0,-2.5 0,-11.81 8.08,-11.81 8.09,0 8.09,9.31 8.09,11.81 z"
           id="path4706" /><path
           style="fill:#000000;stroke-width:0"
           inkscape:connector-curvature="0"
           d="m 569.87,418.65 0,0.37 -0.01,0.39 0,0.39 -0.02,0.41 -0.04,0.84 -0.06,0.88 -0.08,0.92 -0.11,0.95 -0.13,0.97 -0.16,1.01 -0.2,1.02 -0.23,1.03 -0.27,1.05 -0.3,1.06 -0.35,1.07 -0.39,1.07 -0.22,0.53 -0.22,0.53 -0.24,0.53 -0.25,0.53 c -2.99,6.12 -7.27,9.36 -7.77,9.36 -0.29,0 -0.5,-0.19 -0.5,-0.49 0,-0.15 0,-0.25 0.94,-1.15 4.89,-4.92 7.74,-12.85 7.74,-23.27 0,-8.51 -1.85,-17.28 -8.03,-23.56 -0.65,-0.59 -0.65,-0.7 -0.65,-0.84 0,-0.3 0.21,-0.5 0.5,-0.5 0.5,0 4.97,3.39 7.93,9.71 2.53,5.47 3.12,11 3.12,15.19 z"
           id="path4708" /></g>    </g>
    <g
       id="g4766"
       transform="translate(420.31851,441.0354)">
      <g
         word-spacing="normal"
         letter-spacing="normal"
         font-size-adjust="none"
         font-stretch="normal"
         font-weight="normal"
         font-variant="normal"
         font-style="normal"
         stroke-miterlimit="10.433"
         xml:space="preserve"
         transform="matrix(1.0629921,0,0,-1.0629921,-186.02362,789.27165)"
         id="g4768"
         style="font-style:normal;font-variant:normal;font-weight:normal;font-stretch:normal;letter-spacing:normal;word-spacing:normal;text-anchor:start;fill:none;stroke:#000000;stroke-linecap:butt;stroke-linejoin:miter;stroke-miterlimit:10.43299961;stroke-opacity:1;stroke-dasharray:none;stroke-dashoffset:0"><path
           id="path4770"
           d="m 459.91,409.14 -0.02,-0.07 -0.01,-0.08 -0.02,-0.07 -0.01,-0.08 -0.04,-0.16 -0.04,-0.16 -0.03,-0.16 -0.04,-0.16 -0.04,-0.16 -0.04,-0.16 -0.01,-0.08 -0.02,-0.07 -0.02,-0.07 -0.01,-0.07 -0.02,-0.07 -0.01,-0.07 -0.01,-0.06 -0.01,-0.06 -0.01,-0.06 -0.01,-0.05 -0.01,-0.05 -0.01,-0.04 -0.01,-0.04 0,-0.04 0,-0.03 0,-0.02 c 0,-0.89 0.7,-1.35 1.43,-1.35 0.61,0 1.5,0.39 1.85,1.39 0.11,0.21 1.8,6.99 2,7.88 0.39,1.64 1.3,5.12 1.59,6.48 0.21,0.64 1.6,2.99 2.78,4.08 0.41,0.34 1.85,1.64 4,1.64 1.28,0 2.03,-0.59 2.08,-0.59 -1.48,-0.25 -2.58,-1.46 -2.58,-2.74 0,-0.79 0.55,-1.75 1.89,-1.75 1.35,0 2.74,1.14 2.74,2.94 0,1.75 -1.6,3.23 -4.13,3.23 -3.25,0 -5.43,-2.43 -6.39,-3.82 -0.39,2.23 -2.18,3.82 -4.53,3.82 -2.28,0 -3.23,-1.93 -3.69,-2.82 -0.89,-1.71 -1.54,-4.69 -1.54,-4.85 0,-0.5 0.5,-0.5 0.61,-0.5 0.5,0 0.54,0.07 0.84,1.16 0.84,3.53 1.84,5.92 3.64,5.92 0.84,0 1.55,-0.39 1.55,-2.28 0,-1.05 -0.16,-1.61 -0.8,-4.19 z"
           inkscape:connector-curvature="0"
           style="fill:#000000;stroke-width:0" /></g>    </g>
    <g
       id="g4905"
       transform="translate(370.51497,569.81296)">
      <g
         word-spacing="normal"
         letter-spacing="normal"
         font-size-adjust="none"
         font-stretch="normal"
         font-weight="normal"
         font-variant="normal"
         font-style="normal"
         stroke-miterlimit="10.433"
         xml:space="preserve"
         transform="matrix(1.0629921,0,0,-1.0629921,-186.02362,789.27165)"
         id="g4907"
         style="font-style:normal;font-variant:normal;font-weight:normal;font-stretch:normal;letter-spacing:normal;word-spacing:normal;text-anchor:start;fill:none;stroke:#000000;stroke-linecap:butt;stroke-linejoin:miter;stroke-miterlimit:10.43299961;stroke-opacity:1;stroke-dasharray:none;stroke-dashoffset:0"><path
           id="path4909"
           d="m 463.99,397.73 -0.01,-0.03 -0.01,-0.03 -0.01,-0.03 -0.01,-0.03 -0.01,-0.02 -0.01,-0.03 -0.01,-0.05 -0.02,-0.05 -0.01,-0.04 -0.01,-0.05 -0.02,-0.04 -0.01,-0.04 -0.01,-0.03 -0.01,-0.04 -0.01,-0.03 -0.01,-0.03 -0.01,-0.03 -0.01,-0.03 0,-0.02 -0.01,-0.03 -0.01,-0.02 0,-0.02 -0.01,-0.03 0,-0.02 0,-0.02 -0.01,-0.04 -0.01,-0.04 0,-0.04 0,-0.04 0,-0.03 0,-0.02 c 0,-1.09 0.95,-1.39 1.45,-1.39 0.25,0 1.35,0.14 1.85,1.3 0.14,0.39 0.39,2.04 1.73,9.11 0.45,-0.05 0.8,-0.1 1.64,-0.1 8.28,0 15.95,7.83 15.95,15.69 l -1.4,-1.09 c 0,-5.63 -6.42,-11.71 -14.1,-11.71 h 0 c -0.39,0 -0.5,0 -0.89,0.05 -0.61,0 -0.65,0.05 -0.65,0.2 0,0.1 0.84,4.63 1,5.38 1.54,6.37 5.43,11.15 9.86,11.15 3.43,0 4.78,-2.68 4.78,-5.07 l 1.4,1.09 c 0,3.89 -1.95,6.87 -5.68,6.87 -7.22,0 -10.21,-9.65 -13.21,-19.37 -5.37,1 -8.17,3.78 -8.17,7.37 0,1.4 1.16,6.88 4.14,10.32 0.39,0.45 0.39,0.54 0.39,0.64 0,0.2 -0.09,0.5 -0.59,0.5 -1.39,0 -5.24,-7.22 -5.24,-12 0,-4.69 3.3,-8.33 8.63,-9.56 z"
           inkscape:connector-curvature="0"
           style="fill:#000000;stroke-width:0" /></g>    </g>
    <path
       sodipodi:open="true"
       sodipodi:end="7.8509876"
       sodipodi:start="1.5801912"
       transform="translate(509.97006,318.26774)"
       d="m 339.90605,394.09404 c -5.5226,-0.0519 -9.95749,-4.5709 -9.90561,-10.0935 0.0519,-5.52261 4.5709,-9.9575 10.09351,-9.90562 5.5226,0.0519 9.95749,4.57091 9.90561,10.09351 -0.0514,5.47429 -4.49512,9.88962 -9.96962,9.90601"
       sodipodi:ry="10"
       sodipodi:rx="10"
       sodipodi:cy="384.09448"
       sodipodi:cx="340"
       id="path4625-2"
       style="fill:#000000;fill-opacity:1;stroke:#000000;stroke-width:2;stroke-miterlimit:4;stroke-opacity:1;stroke-dasharray:none;stroke-dashoffset:0"
       sodipodi:type="arc" />
    <path
       style="fill:none;stroke:#000000;stroke-width:2;stroke-linecap:butt;stroke-linejoin:miter;stroke-opacity:1;stroke-miterlimit:4;stroke-dasharray:6,6;stroke-dashoffset:0"
       d="m 580,664.09448 270,-270"
       id="path4964"
       inkscape:connector-curvature="0"
       transform="translate(0,308.2677)" />
    <path
       sodipodi:type="arc"
       style="fill:#ffffff;fill-opacity:1;stroke:#000000;stroke-width:2;stroke-miterlimit:4;stroke-opacity:1;stroke-dasharray:6, 6;stroke-dashoffset:0"
       id="path4974"
       sodipodi:cx="845"
       sodipodi:cy="209.09448"
       sodipodi:rx="105"
       sodipodi:ry="95"
       d="m 787.72243,288.71497 c -45.01906,-26.51092 -60.66426,-79.48788 -36.26,-122.78173"
       transform="matrix(-0.98553877,0.16945007,-0.16945007,-0.98553877,1504.7298,1003.0398)"
       sodipodi:start="2.1477827"
       sodipodi:end="3.6132114"
       sodipodi:open="true" />
    <g
       id="g5421"
       transform="matrix(0.78339889,0,0,0.8326413,-213.12919,134.82841)">
      <g
         word-spacing="normal"
         letter-spacing="normal"
         font-size-adjust="none"
         font-stretch="normal"
         font-weight="normal"
         font-variant="normal"
         font-style="normal"
         stroke-miterlimit="10.433"
         xml:space="preserve"
         transform="matrix(1.0629921,0,0,-1.0629921,-186.02362,789.27165)"
         id="g5423"
         style="font-style:normal;font-variant:normal;font-weight:normal;font-stretch:normal;letter-spacing:normal;word-spacing:normal;text-anchor:start;fill:none;stroke:#000000;stroke-linecap:butt;stroke-linejoin:miter;stroke-miterlimit:10.43299961;stroke-opacity:1;stroke-dasharray:none;stroke-dashoffset:0"><path
           id="path5425"
           d="m 1094.3,349.38 0,-0.07 0,-0.08 0,-0.07 0,-0.08 0,-0.16 -0.1,-0.16 0,-0.16 -0.1,-0.16 0,-0.16 0,-0.16 0,-0.08 -0.1,-0.07 0,-0.07 0,-0.07 0,-0.07 0,-0.07 0,-0.06 -0.1,-0.06 0,-0.05 0,-0.06 0,-0.04 0,-0.05 0,-0.04 0,-0.03 0,-0.04 0,-0.02 c 0,-0.89 0.7,-1.35 1.4,-1.35 0.6,0 1.5,0.4 1.9,1.4 0.1,0.2 1.8,6.98 2,7.87 0.4,1.64 1.3,5.13 1.6,6.48 0.2,0.65 1.6,2.99 2.8,4.08 0.4,0.35 1.8,1.64 4,1.64 1.2,0 2,-0.59 2,-0.59 -1.4,-0.25 -2.5,-1.45 -2.5,-2.73 0,-0.8 0.5,-1.75 1.8,-1.75 1.4,0 2.8,1.14 2.8,2.93 0,1.75 -1.6,3.24 -4.1,3.24 -3.3,0 -5.5,-2.44 -6.4,-3.83 -0.4,2.23 -2.2,3.83 -4.6,3.83 -2.3,0 -3.2,-1.94 -3.7,-2.83 -0.8,-1.7 -1.5,-4.69 -1.5,-4.84 0,-0.5 0.5,-0.5 0.6,-0.5 0.5,0 0.6,0.06 0.8,1.15 0.9,3.53 1.9,5.92 3.7,5.92 0.8,0 1.5,-0.39 1.5,-2.28 0,-1.04 -0.1,-1.61 -0.8,-4.19 z"
           inkscape:connector-curvature="0"
           style="fill:#000000;stroke-width:0" /><path
           id="path5427"
           d="m 1161.9,362.74 0.1,0 0.2,0 0.1,0 0.1,0.01 0,0 0.1,0.01 0.1,0.01 0.1,0.01 0,0.01 0.1,0.01 0.1,0.02 0,0.02 0.1,0.02 0.1,0.03 0,0.02 0.1,0.03 0,0.04 0.1,0.04 0,0.04 0.1,0.04 0,0.05 0,0.03 0,0.03 0.1,0.03 0,0.03 0,0.03 0,0.03 0,0.03 0,0.04 0,0.03 0,0.04 0,0.04 0,0.04 0.1,0.04 0,0.04 0,0.05 0,0.04 c 0,1 -1,1 -1.7,1 h -29.8 c -0.7,0 -1.7,0 -1.7,-1 0,-0.98 1,-0.98 1.7,-0.98 z"
           inkscape:connector-curvature="0"
           style="fill:#000000;stroke-width:0" /><path
           id="path5429"
           d="m 1161.9,353.07 0.1,0 0.1,0 0.1,0 0.1,0 0.1,0.01 0.1,0 0,0.01 0.1,0.01 0.1,0.01 0,0.01 0.1,0.01 0.1,0.02 0,0.02 0.1,0.02 0.1,0.03 0,0.02 0.1,0.04 0,0.03 0.1,0.04 0,0.04 0.1,0.05 0,0.02 0,0.03 0,0.02 0,0.03 0.1,0.03 0,0.03 0,0.03 0,0.04 0,0.03 0,0.04 0,0.03 0,0.04 0,0.04 0,0.04 0.1,0.04 0,0.05 0,0.04 0,0.05 c 0,1 -1,1 -1.7,1 h -29.8 c -0.7,0 -1.7,0 -1.7,-1 0,-1 1,-1 1.7,-1 z"
           inkscape:connector-curvature="0"
           style="fill:#000000;stroke-width:0" /><path
           id="path5431"
           d="m 1201.3,334.72 0.1,0 0.1,0 0,0 0.1,0 0.1,0 0,0 0.1,0.01 0,0 0.1,0 0,0 0.1,0 0,0 0.1,0.01 0.1,0.01 0.1,0 0.1,0.01 0.1,0.01 0,0.02 0.1,0.01 0.1,0.02 0,0.02 0.1,0.03 0,0.02 0.1,0.03 0,0.03 0,0.04 0.1,0.04 0,0.04 0.1,0.04 0,0.05 0,0.06 0.1,0.06 0,0.06 0,0.07 0.1,0.07 0,0.07 0.1,0.09 0,0.08 27.3,56.89 c 0.3,0.66 0.3,0.75 0.3,0.91 0,0.55 -0.4,1 -1,1 -0.6,0 -0.8,-0.45 -1.1,-1 l -25.7,-53.61 -10.6,24.7 -6.9,-5.32 0.7,-0.8 3.6,2.69 z"
           inkscape:connector-curvature="0"
           style="fill:#000000;stroke-width:0" /><polyline
           id="polyline5433"
           points="1230,393 1390.3,393 1390.3,395.04 1230,395.04 "
           style="fill:#000000;fill-rule:nonzero;stroke-width:0" /><path
           id="path5435"
           d="m 1246.6,361.49 0.1,0.13 0,0.15 0,0.16 0.1,0.18 0,0.2 0.1,0.2 0.1,0.22 0,0.22 0.1,0.24 0.1,0.24 0.1,0.24 0.1,0.25 0.1,0.25 0.1,0.25 0.2,0.25 0.1,0.24 0.1,0.24 0.2,0.24 0.2,0.23 0.1,0.23 0.2,0.21 0.2,0.2 0.2,0.19 0.3,0.18 0.2,0.16 0.2,0.14 0.2,0.07 0.1,0.06 0.1,0.05 0.2,0.05 0.1,0.05 0.1,0.04 0.2,0.03 0.1,0.03 0.2,0.02 0.1,0.02 0.2,0.01 0.2,0 c 0.2,0 1.4,0 2.5,-0.64 -1.4,-0.25 -2.4,-1.5 -2.4,-2.68 0,-0.8 0.5,-1.75 1.9,-1.75 1.1,0 2.6,0.89 2.6,2.89 0,2.59 -2.9,3.28 -4.6,3.28 -2.9,0 -4.6,-2.64 -5.2,-3.78 -1.3,3.28 -4,3.78 -5.4,3.78 -5.2,0 -8,-6.42 -8,-7.67 0,-0.5 0.5,-0.5 0.6,-0.5 0.4,0 0.5,0.1 0.6,0.54 1.7,5.28 5,6.53 6.7,6.53 1,0 2.7,-0.43 2.7,-3.32 0,-1.55 -0.8,-4.9 -2.7,-11.86 -0.8,-3.1 -2.5,-5.19 -4.7,-5.19 -0.3,0 -1.5,0 -2.5,0.65 1.2,0.24 2.3,1.29 2.3,2.69 0,1.35 -1.1,1.74 -1.8,1.74 -1.5,0 -2.8,-1.3 -2.8,-2.89 0,-2.29 2.5,-3.29 4.7,-3.29 3.3,0 5.1,3.49 5.3,3.79 0.5,-1.85 2.4,-3.79 5.3,-3.79 5.2,0 8,6.43 8,7.68 0,0.5 -0.4,0.5 -0.6,0.5 -0.4,0 -0.5,-0.21 -0.6,-0.55 -1.7,-5.33 -5.1,-6.53 -6.7,-6.53 -1.9,0 -2.7,1.59 -2.7,3.3 0,1.09 0.3,2.18 0.8,4.37 z"
           inkscape:connector-curvature="0"
           style="fill:#000000;stroke-width:0" /><path
           id="path5437"
           d="m 1276,367.18 h -1.2 c 0,-0.76 -0.4,-2.82 -0.9,-3.17 -0.2,-0.2 -2.9,-0.2 -3.4,-0.2 h -6.4 c 3.6,3.23 4.9,4.2 7,5.84 2.5,2.06 4.9,4.22 4.9,7.53 0,4.22 -3.7,6.8 -8.1,6.8 -4.3,0 -7.3,-3.03 -7.3,-6.23 0,-1.79 1.5,-1.96 1.9,-1.96 0.8,0 1.8,0.6 1.8,1.85 0,0.62 -0.2,1.84 -2,1.84 1,2.47 3.4,3.23 5.1,3.23 3.4,0 5.3,-2.7 5.3,-5.53 0,-3.03 -2.2,-5.43 -3.3,-6.68 l -8.4,-8.3 c -0.4,-0.31 -0.4,-0.39 -0.4,-1.36 h 14.4 z"
           inkscape:connector-curvature="0"
           style="fill:#000000;stroke-width:0" /><path
           id="path5439"
           d="m 1312.3,357.89 h 13.9 c 0.7,0 1.6,0 1.6,1 0,1 -0.9,1 -1.6,1 h -13.9 v 13.96 c 0,0.69 0,1.64 -1,1.64 -1,0 -1,-0.95 -1,-1.64 v -13.96 h -13.9 c -0.7,0 -1.7,0 -1.7,-1 0,-1 1,-1 1.7,-1 h 13.9 v -13.93 c 0,-0.71 0,-1.66 1,-1.66 1,0 1,0.95 1,1.66 z"
           inkscape:connector-curvature="0"
           style="fill:#000000;stroke-width:0" /><path
           id="path5441"
           d="m 1365.9,365.43 0,0.03 0.1,0.03 0,0.06 0,0.05 0,0.06 0,0.05 0,0.05 0,0.04 0,0.05 0.1,0.04 0,0.04 0,0.03 0,0.04 0,0.03 0,0.03 0,0.04 0,0.02 0,0.03 0,0.03 0,0.06 0,0.05 0,0.05 0,0.05 0,0.06 0,0.03 0,0.02 0,0.03 0,0.04 c 0,0.9 -0.7,1.34 -1.4,1.34 -0.5,0 -1.3,-0.3 -1.8,-1.05 -0.1,-0.25 -0.5,-1.78 -0.7,-2.68 -0.3,-1.3 -0.6,-2.64 -1,-3.99 l -2.2,-8.97 c -0.2,-0.75 -2.3,-4.23 -5.6,-4.23 -2.6,0 -3.1,2.19 -3.1,4.03 0,2.3 0.8,5.39 2.5,9.77 0.8,2.04 1,2.59 1,3.59 0,2.23 -1.6,4.08 -4.1,4.08 -4.7,0 -6.5,-7.22 -6.5,-7.67 0,-0.5 0.5,-0.5 0.6,-0.5 0.5,0 0.5,0.1 0.8,0.9 1.3,4.69 3.3,6.17 5,6.17 0.4,0 1.2,0 1.2,-1.59 0,-1.25 -0.5,-2.53 -0.8,-3.48 -2,-5.29 -2.9,-8.13 -2.9,-10.47 0,-4.43 3.1,-5.93 6.1,-5.93 1.9,0 3.6,0.85 5,2.24 -0.6,-2.58 -1.2,-5.03 -3.2,-7.67 -1.3,-1.69 -3.2,-3.14 -5.5,-3.14 -0.7,0 -2.9,0.15 -3.8,2.09 0.8,0 1.5,0 2.1,0.61 0.5,0.44 1,1.09 1,2.03 0,1.55 -1.3,1.75 -1.8,1.75 -1.1,0 -2.8,-0.8 -2.8,-3.23 0,-2.5 2.2,-4.35 5.3,-4.35 5.1,0 10.3,4.55 11.7,10.17 z"
           inkscape:connector-curvature="0"
           style="fill:#000000;stroke-width:0" /><path
           id="path5443"
           d="m 1385.6,367.18 h -1.2 c -0.1,-0.76 -0.5,-2.82 -0.9,-3.17 -0.3,-0.2 -2.9,-0.2 -3.4,-0.2 h -6.5 c 3.7,3.23 4.9,4.2 7,5.84 2.6,2.06 5,4.22 5,7.53 0,4.22 -3.7,6.8 -8.2,6.8 -4.3,0 -7.2,-3.03 -7.2,-6.23 0,-1.79 1.5,-1.96 1.9,-1.96 0.8,0 1.8,0.6 1.8,1.85 0,0.62 -0.3,1.84 -2.1,1.84 1.1,2.47 3.5,3.23 5.1,3.23 3.5,0 5.3,-2.7 5.3,-5.53 0,-3.03 -2.1,-5.43 -3.3,-6.68 l -8.3,-8.3 c -0.4,-0.31 -0.4,-0.39 -0.4,-1.36 h 14.4 z"
           inkscape:connector-curvature="0"
           style="fill:#000000;stroke-width:0" /></g>    </g>
    <g
       transform="matrix(0.78339889,0,0,0.8326413,-127.58144,200.48381)"
       id="g5547">
      <g
         style="font-style:normal;font-variant:normal;font-weight:normal;font-stretch:normal;letter-spacing:normal;word-spacing:normal;text-anchor:start;fill:none;stroke:#000000;stroke-linecap:butt;stroke-linejoin:miter;stroke-miterlimit:10.43299961;stroke-opacity:1;stroke-dasharray:none;stroke-dashoffset:0"
         id="g5549"
         transform="matrix(1.0629921,0,0,-1.0629921,-186.02362,789.27165)"
         xml:space="preserve"
         stroke-miterlimit="10.433"
         font-style="normal"
         font-variant="normal"
         font-weight="normal"
         font-stretch="normal"
         font-size-adjust="none"
         letter-spacing="normal"
         word-spacing="normal"><path
           style="fill:#000000;stroke-width:0"
           inkscape:connector-curvature="0"
           d="m 1057.7,362.74 0.2,0 0.1,0 0.1,0 0.1,0.01 0.1,0 0.1,0.01 0,0.01 0.1,0.01 0.1,0.01 0,0.01 0.1,0.02 0.1,0.02 0,0.02 0.1,0.03 0.1,0.02 0,0.03 0.1,0.04 0,0.04 0.1,0.04 0,0.04 0,0.05 0.1,0.03 0,0.03 0,0.03 0,0.03 0,0.03 0,0.03 0,0.03 0.1,0.04 0,0.03 0,0.04 0,0.04 0,0.04 0,0.04 0,0.04 0,0.05 0,0.04 c 0,1 -1,1 -1.6,1 h -29.9 c -0.7,0 -1.6,0 -1.6,-1 0,-0.98 0.9,-0.98 1.7,-0.98 z"
           id="path5551" /><path
           style="fill:#000000;stroke-width:0"
           inkscape:connector-curvature="0"
           d="m 1057.8,353.07 0,0 0.1,0 0.1,0 0.2,0 0,0.01 0.1,0 0.1,0.01 0,0.01 0.1,0.01 0.1,0.01 0,0.01 0.1,0.02 0.1,0.02 0,0.02 0.1,0.03 0.1,0.02 0,0.04 0.1,0.03 0,0.04 0.1,0.04 0,0.05 0,0.02 0,0.03 0.1,0.02 0,0.03 0,0.03 0,0.03 0,0.03 0,0.04 0,0.03 0.1,0.04 0,0.03 0,0.04 0,0.04 0,0.04 0,0.04 0,0.05 0,0.04 0,0.05 c 0,1 -1,1 -1.7,1 H 1028 c -0.8,0 -1.7,0 -1.7,-1 0,-1 0.9,-1 1.6,-1 z"
           id="path5553" /><path
           style="fill:#000000;stroke-width:0"
           inkscape:connector-curvature="0"
           d="m 1097.2,333.64 0,0.01 0.1,0 0.1,0 0,0 0.1,0 0.1,0 0,0 0.1,0 0,0 0.1,0 0,0 0.1,0.01 0.1,0 0.1,0.01 0.1,0.01 0,0 0.1,0.02 0.1,0.01 0,0.02 0.1,0.01 0.1,0.02 0,0.03 0.1,0.02 0,0.03 0,0.03 0.1,0.04 0,0.04 0.1,0.04 0,0.05 0,0.05 0.1,0.05 0,0.06 0.1,0.06 0,0.07 0,0.07 0.1,0.08 0,0.08 0.1,0.08 27.2,56.9 c 0.3,0.65 0.3,0.75 0.3,0.9 0,0.55 -0.3,1 -0.9,1 -0.7,0 -0.9,-0.45 -1.1,-1 l -25.7,-53.61 -10.7,24.71 -6.9,-5.33 0.8,-0.8 3.5,2.69 z"
           id="path5555" /><polyline
           style="fill:#000000;fill-rule:nonzero;stroke-width:0"
           points="1126,391 1457,391 1457,393.04 1126,393.04 "
           id="polyline5557" /><path
           style="fill:#000000;stroke-width:0"
           inkscape:connector-curvature="0"
           d="m 1142.3,334.49 0,0.02 0,0.03 0,0.01 0,0.02 0,0.01 0,0.02 0,0.02 0,0.01 0,0.02 0,0.02 0,0.03 -0.1,0.02 0,0.02 0,0.03 0,0.03 0,0.03 -0.1,0.04 0,0.03 0,0.02 0,0.02 0,0.02 -0.1,0.02 0,0.02 0,0.03 0,0.02 0,0.02 -0.1,0.03 0,0.03 0,0.02 0,0.03 -0.1,0.03 0,0.03 0,0.03 0,0.03 -0.1,0.03 0,0.03 0,0.04 -0.1,0.03 0,0.04 0,0.04 -0.1,0.03 0,0.04 c -6.2,6.28 -7.8,15.69 -7.8,23.31 0,8.68 1.9,17.35 8,23.57 0.6,0.61 0.6,0.7 0.6,0.86 0,0.34 -0.2,0.48 -0.5,0.48 -0.5,0 -5,-3.37 -7.9,-9.7 -2.5,-5.49 -3.1,-11.02 -3.1,-15.21 0,-3.89 0.5,-9.9 3.3,-15.54 2.9,-6.13 7.2,-9.36 7.7,-9.36 0.3,0 0.5,0.14 0.5,0.5 z"
           id="path5559" /><path
           style="fill:#000000;stroke-width:0"
           inkscape:connector-curvature="0"
           d="m 1161.8,361.49 0,0.13 0.1,0.15 0,0.16 0,0.18 0.1,0.2 0.1,0.2 0,0.22 0.1,0.22 0.1,0.24 0.1,0.24 0.1,0.24 0.1,0.25 0.1,0.25 0.1,0.25 0.1,0.25 0.2,0.24 0.1,0.24 0.2,0.24 0.1,0.23 0.2,0.23 0.2,0.21 0.2,0.2 0.2,0.19 0.2,0.18 0.3,0.16 0.2,0.14 0.1,0.07 0.2,0.06 0.1,0.05 0.1,0.05 0.2,0.05 0.1,0.04 0.2,0.03 0.1,0.03 0.2,0.02 0.1,0.02 0.2,0.01 0.1,0 c 0.3,0 1.5,0 2.5,-0.64 -1.4,-0.25 -2.4,-1.5 -2.4,-2.68 0,-0.8 0.6,-1.75 1.9,-1.75 1.1,0 2.7,0.89 2.7,2.89 0,2.59 -2.9,3.28 -4.6,3.28 -2.9,0 -4.7,-2.64 -5.3,-3.78 -1.2,3.28 -3.9,3.78 -5.3,3.78 -5.2,0 -8.1,-6.42 -8.1,-7.67 0,-0.5 0.5,-0.5 0.7,-0.5 0.3,0 0.5,0.1 0.6,0.54 1.7,5.28 5,6.53 6.7,6.53 0.9,0 2.7,-0.43 2.7,-3.32 0,-1.55 -0.9,-4.9 -2.7,-11.86 -0.8,-3.1 -2.6,-5.19 -4.8,-5.19 -0.3,0 -1.4,0 -2.5,0.65 1.3,0.24 2.4,1.29 2.4,2.69 0,1.35 -1.1,1.74 -1.9,1.74 -1.5,0 -2.7,-1.3 -2.7,-2.89 0,-2.29 2.5,-3.29 4.7,-3.29 3.3,0 5.1,3.49 5.2,3.79 0.6,-1.85 2.4,-3.79 5.4,-3.79 5.1,0 8,6.43 8,7.68 0,0.5 -0.5,0.5 -0.6,0.5 -0.5,0 -0.6,-0.21 -0.7,-0.55 -1.6,-5.33 -5,-6.53 -6.6,-6.53 -2,0 -2.8,1.59 -2.8,3.3 0,1.09 0.3,2.18 0.9,4.37 z"
           id="path5561" /><path
           style="fill:#000000;stroke-width:0"
           inkscape:connector-curvature="0"
           d="m 1191.6,349.99 0,0.36 0,0.35 0,0.68 -0.1,0.66 0,0.64 -0.1,0.62 0,0.59 -0.1,0.58 -0.1,0.56 -0.2,0.55 -0.1,0.52 -0.2,0.52 -0.2,0.5 -0.2,0.49 -0.2,0.48 -0.3,0.47 -0.1,0.23 -0.2,0.23 c -1.1,1.61 -3.2,3 -6,3 -8.1,0 -8.1,-9.52 -8.1,-12.03 0,-2.5 0,-11.81 8.1,-11.81 v 0.98 c -1.6,0 -3.7,0.94 -4.4,3.8 -0.5,2.04 -0.5,4.9 -0.5,7.48 0,2.55 0,5.2 0.5,7.11 0.7,2.75 3,3.49 4.4,3.49 1.9,0 3.7,-1.15 4.3,-3.18 0.6,-1.87 0.6,-4.39 0.6,-7.42 0,-2.58 0,-5.15 -0.4,-7.34 -0.7,-3.17 -3.1,-3.94 -4.5,-3.94 h 0 v -0.98 c 8.1,0 8.1,9.31 8.1,11.81 z"
           id="path5563" /><path
           style="fill:#000000;stroke-width:0"
           inkscape:connector-curvature="0"
           d="m 1210.4,358.89 0,0.38 0,0.38 0,0.39 0,0.41 0,0.84 -0.1,0.88 -0.1,0.92 -0.1,0.95 -0.1,0.98 -0.2,1 -0.2,1.02 -0.2,1.04 -0.3,1.05 -0.3,1.06 -0.3,1.06 -0.4,1.07 -0.2,0.53 -0.3,0.53 -0.2,0.53 -0.2,0.53 c -3,6.13 -7.3,9.36 -7.8,9.36 -0.3,0 -0.5,-0.19 -0.5,-0.48 0,-0.16 0,-0.25 0.9,-1.16 4.9,-4.92 7.8,-12.84 7.8,-23.27 0,-8.51 -1.9,-17.28 -8.1,-23.56 -0.6,-0.59 -0.6,-0.7 -0.6,-0.84 0,-0.3 0.2,-0.5 0.5,-0.5 0.5,0 4.9,3.39 7.9,9.72 2.5,5.47 3.1,11 3.1,15.18 z"
           id="path5565" /><path
           style="fill:#000000;stroke-width:0"
           inkscape:connector-curvature="0"
           d="m 1233.7394,365.06481 h -1.1 c -0.1,-0.76 -0.5,-2.82 -0.9,-3.17 -0.3,-0.2 -3,-0.2 -3.5,-0.2 h -6.4 c 3.7,3.23 4.9,4.2 7,5.84 2.6,2.06 4.9,4.22 4.9,7.53 0,4.22 -3.6,6.8 -8.1,6.8 -4.3,0 -7.2,-3.03 -7.2,-6.23 0,-1.79 1.5,-1.96 1.8,-1.96 0.8,0 1.8,0.6 1.8,1.85 0,0.62 -0.2,1.84 -2,1.84 1.1,2.47 3.4,3.23 5.1,3.23 3.5,0 5.3,-2.7 5.3,-5.53 0,-3.03 -2.2,-5.43 -3.3,-6.68 l -8.4,-8.3 c -0.3,-0.31 -0.3,-0.39 -0.3,-1.36 h 14.3 z"
           id="path5567" /><path
           style="fill:#000000;stroke-width:0"
           inkscape:connector-curvature="0"
           d="m 1269.2,357.89 h 13.9 c 0.7,0 1.7,0 1.7,1 0,1 -1,1 -1.7,1 h -13.9 v 13.96 c 0,0.69 0,1.64 -1,1.64 -1,0 -1,-0.95 -1,-1.64 v -13.96 h -13.9 c -0.7,0 -1.7,0 -1.7,-1 0,-1 1,-1 1.7,-1 h 13.9 v -13.93 c 0,-0.71 0,-1.66 1,-1.66 1,0 1,0.95 1,1.66 z"
           id="path5569" /><path
           style="fill:#000000;stroke-width:0"
           inkscape:connector-curvature="0"
           d="m 1315.1,334.49 0,0.02 0,0.03 0,0.01 0,0.02 0,0.01 0,0.02 0,0.02 0,0.01 0,0.02 0,0.02 0,0.03 -0.1,0.02 0,0.02 0,0.03 0,0.03 0,0.03 -0.1,0.04 0,0.03 0,0.02 0,0.02 0,0.02 -0.1,0.02 0,0.02 0,0.03 0,0.02 0,0.02 -0.1,0.03 0,0.03 0,0.02 0,0.03 -0.1,0.03 0,0.03 0,0.03 0,0.03 -0.1,0.03 0,0.03 0,0.04 -0.1,0.03 0,0.04 0,0.04 -0.1,0.03 0,0.04 c -6.2,6.28 -7.8,15.69 -7.8,23.31 0,8.68 1.9,17.35 8,23.57 0.6,0.61 0.6,0.7 0.6,0.86 0,0.34 -0.2,0.48 -0.5,0.48 -0.5,0 -4.9,-3.37 -7.9,-9.7 -2.5,-5.49 -3.1,-11.02 -3.1,-15.21 0,-3.89 0.5,-9.9 3.3,-15.54 2.9,-6.13 7.2,-9.36 7.7,-9.36 0.3,0 0.5,0.14 0.5,0.5 z"
           id="path5571" /><path
           style="fill:#000000;stroke-width:0"
           inkscape:connector-curvature="0"
           d="m 1336.2,366.36 h 4.3 c 1,0 1.5,0 1.5,1 0,0.55 -0.5,0.55 -1.3,0.55 h -4.2 l 1.1,5.69 c 0.2,1.04 0.9,4.58 1.2,5.17 0.4,0.95 1.3,1.7 2.3,1.7 0.2,0 1.5,0 2.5,-0.9 -2.2,-0.19 -2.7,-1.94 -2.7,-2.69 0,-1.14 0.9,-1.74 1.8,-1.74 1.3,0 2.7,1.1 2.7,2.99 0,2.3 -2.2,3.44 -4.3,3.44 -1.7,0 -4.8,-0.89 -6.3,-5.83 -0.3,-1.05 -0.5,-1.55 -1.6,-7.83 h -3.5 c -0.9,0 -1.5,0 -1.5,-0.94 0,-0.61 0.5,-0.61 1.4,-0.61 h 3.3 l -3.7,-19.67 c -0.9,-4.83 -1.8,-9.37 -4.4,-9.37 -0.2,0 -1.4,0 -2.4,0.9 2.3,0.14 2.8,1.94 2.8,2.69 0,1.14 -0.9,1.75 -1.9,1.75 -1.3,0 -2.7,-1.09 -2.7,-3 0,-2.23 2.2,-3.44 4.2,-3.44 2.8,0 4.8,2.94 5.6,4.85 1.7,3.14 2.8,9.15 2.8,9.51 z"
           id="path5573" /><path
           style="fill:#000000;stroke-width:0"
           inkscape:connector-curvature="0"
           d="m 1364.2,334.49 0,0.02 0,0.03 0,0.01 0,0.02 0,0.01 0,0.02 0,0.02 0,0.01 0,0.02 0,0.02 -0.1,0.03 0,0.02 0,0.02 0,0.03 0,0.03 0,0.03 -0.1,0.04 0,0.03 0,0.02 0,0.02 -0.1,0.02 0,0.02 0,0.02 0,0.03 0,0.02 -0.1,0.02 0,0.03 0,0.03 0,0.02 -0.1,0.03 0,0.03 0,0.03 0,0.03 -0.1,0.03 0,0.03 0,0.03 -0.1,0.04 0,0.03 0,0.04 -0.1,0.04 0,0.03 0,0.04 c -6.3,6.28 -7.9,15.69 -7.9,23.31 0,8.68 1.9,17.35 8.1,23.57 0.6,0.61 0.6,0.7 0.6,0.86 0,0.34 -0.2,0.48 -0.5,0.48 -0.5,0 -5,-3.37 -7.9,-9.7 -2.6,-5.49 -3.1,-11.02 -3.1,-15.21 0,-3.89 0.5,-9.9 3.2,-15.54 3,-6.13 7.3,-9.36 7.8,-9.36 0.3,0 0.5,0.14 0.5,0.5 z"
           id="path5575" /><path
           style="fill:#000000;stroke-width:0"
           inkscape:connector-curvature="0"
           d="m 1383.7,361.49 0,0.13 0,0.15 0.1,0.16 0,0.18 0.1,0.2 0,0.2 0.1,0.22 0.1,0.22 0.1,0.24 0,0.24 0.1,0.24 0.1,0.25 0.2,0.25 0.1,0.25 0.1,0.25 0.1,0.24 0.2,0.24 0.1,0.24 0.2,0.23 0.2,0.23 0.2,0.21 0.2,0.2 0.2,0.19 0.2,0.18 0.2,0.16 0.3,0.14 0.1,0.07 0.1,0.06 0.2,0.05 0.1,0.05 0.1,0.05 0.2,0.04 0.1,0.03 0.2,0.03 0.1,0.02 0.2,0.02 0.1,0.01 0.2,0 c 0.3,0 1.5,0 2.5,-0.64 -1.4,-0.25 -2.4,-1.5 -2.4,-2.68 0,-0.8 0.5,-1.75 1.9,-1.75 1.1,0 2.7,0.89 2.7,2.89 0,2.59 -3,3.28 -4.6,3.28 -2.9,0 -4.7,-2.64 -5.3,-3.78 -1.2,3.28 -3.9,3.78 -5.3,3.78 -5.2,0 -8.1,-6.42 -8.1,-7.67 0,-0.5 0.5,-0.5 0.6,-0.5 0.4,0 0.6,0.1 0.7,0.54 1.6,5.28 4.9,6.53 6.6,6.53 1,0 2.7,-0.43 2.7,-3.32 0,-1.55 -0.8,-4.9 -2.7,-11.86 -0.8,-3.1 -2.5,-5.19 -4.7,-5.19 -0.3,0 -1.4,0 -2.5,0.65 1.3,0.24 2.4,1.29 2.4,2.69 0,1.35 -1.1,1.74 -1.9,1.74 -1.5,0 -2.7,-1.3 -2.7,-2.89 0,-2.29 2.5,-3.29 4.7,-3.29 3.2,0 5,3.49 5.2,3.79 0.6,-1.85 2.4,-3.79 5.4,-3.79 5.1,0 8,6.43 8,7.68 0,0.5 -0.5,0.5 -0.7,0.5 -0.4,0 -0.5,-0.21 -0.6,-0.55 -1.6,-5.33 -5,-6.53 -6.6,-6.53 -2,0 -2.8,1.59 -2.8,3.3 0,1.09 0.3,2.18 0.9,4.37 z"
           id="path5577" /><path
           style="fill:#000000;stroke-width:0"
           inkscape:connector-curvature="0"
           d="m 1413.5,349.99 0,0.71 -0.1,0.68 0,0.66 0,0.64 -0.1,0.62 -0.1,0.59 -0.1,0.58 -0.1,0.56 -0.1,0.55 -0.1,0.52 -0.2,0.52 -0.2,0.5 -0.2,0.49 -0.2,0.48 -0.3,0.47 -0.2,0.23 -0.1,0.23 c -1.1,1.61 -3.2,3 -6,3 -8.1,0 -8.1,-9.52 -8.1,-12.03 0,-2.5 0,-11.81 8.1,-11.81 v 0.98 c -1.6,0 -3.7,0.94 -4.5,3.8 -0.4,2.04 -0.4,4.9 -0.4,7.48 0,2.55 0,5.2 0.5,7.11 0.7,2.75 2.9,3.49 4.4,3.49 1.9,0 3.7,-1.15 4.3,-3.18 0.6,-1.87 0.6,-4.39 0.6,-7.42 0,-2.58 0,-5.15 -0.5,-7.34 -0.7,-3.17 -3,-3.94 -4.4,-3.94 h 0 v -0.98 c 8.1,0 8.1,9.31 8.1,11.81 z"
           id="path5579" /><path
           style="fill:#000000;stroke-width:0"
           inkscape:connector-curvature="0"
           d="m 1432.4,358.89 0,0.38 0,0.38 0,0.39 0,0.41 0,0.84 -0.1,0.88 -0.1,0.92 -0.1,0.95 -0.1,0.98 -0.2,1 -0.2,1.02 -0.2,1.04 -0.3,1.05 -0.3,1.06 -0.3,1.06 -0.4,1.07 -0.2,0.53 -0.3,0.53 -0.2,0.53 -0.2,0.53 c -3,6.13 -7.3,9.36 -7.8,9.36 -0.3,0 -0.5,-0.19 -0.5,-0.48 0,-0.16 0,-0.25 0.9,-1.16 4.9,-4.92 7.8,-12.84 7.8,-23.27 0,-8.51 -1.9,-17.28 -8.1,-23.56 -0.6,-0.59 -0.6,-0.7 -0.6,-0.84 0,-0.3 0.2,-0.5 0.5,-0.5 0.5,0 4.9,3.39 7.9,9.72 2.5,5.47 3.1,11 3.1,15.18 z"
           id="path5581" /><path
           style="fill:#000000;stroke-width:0"
           inkscape:connector-curvature="0"
           d="m 1451.8,358.89 -0.1,0.38 0,0.38 0,0.39 0,0.41 0,0.84 -0.1,0.88 -0.1,0.92 -0.1,0.95 -0.1,0.98 -0.2,1 -0.2,1.02 -0.2,1.04 -0.3,1.05 -0.3,1.06 -0.3,1.06 -0.4,1.07 -0.2,0.53 -0.3,0.53 -0.2,0.53 -0.2,0.53 c -3,6.13 -7.3,9.36 -7.8,9.36 -0.3,0 -0.5,-0.19 -0.5,-0.48 0,-0.16 0,-0.25 0.9,-1.16 4.9,-4.92 7.8,-12.84 7.8,-23.27 0,-8.51 -1.9,-17.28 -8.1,-23.56 -0.6,-0.59 -0.6,-0.7 -0.6,-0.84 0,-0.3 0.2,-0.5 0.5,-0.5 0.5,0 5,3.39 7.9,9.72 2.6,5.47 3.2,11 3.2,15.18 z"
           id="path5583" /></g>    </g>
    <g
       transform="translate(-520.31887,-18.476406)"
       id="g5901">
      <g
         style="font-style:normal;font-variant:normal;font-weight:normal;font-stretch:normal;letter-spacing:normal;word-spacing:normal;text-anchor:start;fill:none;stroke:#000000;stroke-linecap:butt;stroke-linejoin:miter;stroke-miterlimit:10.43299961;stroke-opacity:1;stroke-dasharray:none;stroke-dashoffset:0"
         id="g5903"
         transform="matrix(1.0629921,0,0,-1.0629921,-186.02362,789.27165)"
         xml:space="preserve"
         stroke-miterlimit="10.433"
         font-style="normal"
         font-variant="normal"
         font-weight="normal"
         font-stretch="normal"
         font-size-adjust="none"
         letter-spacing="normal"
         word-spacing="normal"><path
           style="fill:#000000;stroke-width:0"
           inkscape:connector-curvature="0"
           d="m 1193.6,362.19 -0.2,1.28 v 13.46 c 0,1.65 0.1,2 2.4,2 h 4.5 c 7.9,0 7.9,-5.29 7.9,-7.72 0,-2.35 0,-7.74 -7.9,-7.74 h -6.9 l 0.2,-1.28 h 8.4 c 5.9,0 11.3,4.03 11.3,9.02 0,4.87 -4.9,9.26 -11.7,9.26 H 1184 v -1.54 h 1.2 c 3.8,0 3.9,-0.55 3.9,-2.35 v -26.25 c 0,-1.79 -0.1,-2.34 -3.9,-2.34 h -1.2 v -1.55 c 1.7,0.16 5.4,0.16 7.3,0.16 1.9,0 5.6,0 7.4,-0.16 v 1.55 h -1.2 c -3.9,0 -3.9,0.55 -3.9,2.34 z"
           id="path5905" /><path
           style="fill:#000000;stroke-width:0"
           inkscape:connector-curvature="0"
           d="m 1238.2,357.1 0,0.59 0,0.59 -0.1,0.58 -0.1,0.57 -0.1,0.56 -0.2,0.55 -0.1,0.54 -0.2,0.53 -0.3,0.51 -0.2,0.51 -0.3,0.48 -0.3,0.48 -0.3,0.46 -0.3,0.44 -0.4,0.42 -0.3,0.41 -0.4,0.38 -0.4,0.37 -0.4,0.35 -0.5,0.33 -0.4,0.3 -0.5,0.28 -0.4,0.26 -0.5,0.24 -0.5,0.21 -0.5,0.18 -0.6,0.16 -0.5,0.13 -0.5,0.11 -0.6,0.07 -0.5,0.05 -0.6,0.01 0,-1.09 c 2.1,0 4.3,-1.09 5.6,-3.23 1.3,-2.14 1.3,-5.04 1.3,-6.93 0,-1.79 0,-4.48 -1.1,-6.67 -1.1,-2.25 -3.3,-3.69 -5.8,-3.69 h 0 c -2.1,0 -4.3,1.05 -5.7,3.33 -1.2,2.21 -1.2,5.24 -1.2,7.03 0,1.94 0,4.63 1.2,6.83 1.3,2.28 3.7,3.33 5.7,3.33 l 0,1.09 c -6.2,0 -11,-5.42 -11,-11.65 0,-6.42 5.1,-11.21 11,-11.21 6,0 11,4.88 11,11.21 z"
           id="path5907" /><path
           style="fill:#000000;stroke-width:0"
           inkscape:connector-curvature="0"
           d="m 1248.5,381.02 -7.1,-0.55 v -1.54 c 3.4,0 3.8,-0.35 3.8,-2.8 v -25.91 c 0,-2.23 -0.5,-2.23 -3.8,-2.23 v -1.55 c 1.6,0.05 4.2,0.16 5.5,0.16 1.2,0 3.7,-0.11 5.5,-0.16 v 1.55 c -3.3,0 -3.9,0 -3.9,2.23 z"
           id="path5909" /><path
           style="fill:#000000;stroke-width:0"
           inkscape:connector-curvature="0"
           d="m 1270.1,350.22 0,-0.18 0.1,-0.19 0,-0.19 0,-0.18 0.1,-0.19 0,-0.18 0.1,-0.18 0.1,-0.18 0,-0.18 0.1,-0.17 0.1,-0.17 0.1,-0.17 0.1,-0.16 0.1,-0.16 0.1,-0.15 0.1,-0.15 0.2,-0.14 0.1,-0.14 0.1,-0.13 0.2,-0.12 0.1,-0.11 0.2,-0.11 0.2,-0.1 0.1,-0.09 0.2,-0.08 0.2,-0.07 0.2,-0.06 0.2,-0.05 0.2,-0.04 0.2,-0.03 0.2,-0.02 0.2,-0.01 c 1,0 4.1,0.71 4.1,4.74 v 2.78 h -1.3 v -2.78 c 0,-2.89 -1.2,-3.19 -1.8,-3.19 -1.6,0 -1.8,2.24 -1.8,2.49 v 9.96 c 0,2.1 0,4.04 -1.8,5.88 -2,1.94 -4.4,2.73 -6.8,2.73 -4.1,0 -7.6,-2.32 -7.6,-5.62 0,-1.49 1,-2.34 2.3,-2.34 1.4,0 2.3,1 2.3,2.29 0,0.6 -0.2,2.24 -2.5,2.3 1.3,1.73 3.8,2.28 5.4,2.28 2.4,0 5.3,-1.94 5.3,-6.37 v -1.85 -1.05 -4.98 c 0,-4.73 -3.6,-6.42 -5.9,-6.42 -2.4,0 -4.5,1.75 -4.5,4.23 0,2.74 2.1,6.88 10.4,7.17 h 0 v 1.05 c -2.6,-0.14 -6.1,-0.3 -9.2,-1.8 -3.7,-1.68 -5,-4.28 -5,-6.46 0,-4.04 4.8,-5.29 8,-5.29 3.3,0 5.6,1.99 6.5,4.33 z"
           id="path5911" /><path
           style="fill:#000000;stroke-width:0"
           inkscape:connector-curvature="0"
           d="m 1286.8,362.99 v 5.47 l -6.9,-0.55 v -1.55 c 3.4,0 3.9,-0.34 3.9,-2.78 v -13.36 c 0,-2.23 -0.6,-2.23 -3.9,-2.23 v -1.55 c 1.9,0.05 4.2,0.16 5.7,0.16 1.9,0 4.3,0 6.3,-0.16 v 1.55 h -1.1 c -3.7,0 -3.8,0.55 -3.8,2.34 V 358 c 0,4.93 2.1,9.36 5.9,9.36 0.4,0 0.5,0 0.6,-0.04 -0.2,-0.05 -1.2,-0.64 -1.2,-1.94 0,-1.41 1.1,-2.14 2.2,-2.14 0.9,0 2.1,0.59 2.1,2.19 0,1.59 -1.5,3.03 -3.7,3.03 -3.6,0 -5.4,-3.33 -6.1,-5.47 z"
           id="path5913" /></g>    </g>
    <g
       id="g6078"
       transform="translate(-948.99999,-19.231125)">
      <g
         word-spacing="normal"
         letter-spacing="normal"
         font-size-adjust="none"
         font-stretch="normal"
         font-weight="normal"
         font-variant="normal"
         font-style="normal"
         stroke-miterlimit="10.433"
         xml:space="preserve"
         transform="matrix(1.0629921,0,0,-1.0629921,-186.02362,789.27165)"
         id="g6080"
         style="font-style:normal;font-variant:normal;font-weight:normal;font-stretch:normal;letter-spacing:normal;word-spacing:normal;text-anchor:start;fill:none;stroke:#000000;stroke-linecap:butt;stroke-linejoin:miter;stroke-miterlimit:10.43299961;stroke-opacity:1;stroke-dasharray:none;stroke-dashoffset:0"><path
           id="path6082"
           d="m 1133,367.32 9,8.62 c 0.4,0.39 3.1,2.94 7.1,2.99 v 1.54 c -1.3,-0.15 -2.9,-0.15 -4.2,-0.15 -1.8,0 -4.7,0 -6.4,0.15 v -1.54 c 2,-0.05 2.3,-1.21 2.3,-1.64 0,-0.8 -0.5,-1.3 -0.9,-1.65 l -15.6,-14.9 v 15.84 c 0,1.8 0.1,2.35 4,2.35 h 1.2 v 1.54 c -1.8,-0.15 -5.5,-0.15 -7.4,-0.15 -1.9,0 -5.6,0 -7.3,0.15 v -1.54 h 1.2 c 3.8,0 3.9,-0.55 3.9,-2.35 v -26.25 c 0,-1.79 -0.1,-2.34 -3.9,-2.34 h -1.2 v -1.55 c 1.7,0.16 5.4,0.16 7.3,0.16 1.9,0 5.6,0 7.4,-0.16 v 1.55 h -1.2 c -3.9,0 -4,0.55 -4,2.34 v 8.72 l 5.8,5.47 9,-13.34 c 0.3,-0.46 0.8,-1.1 0.8,-1.69 0,-1.5 -2,-1.5 -3,-1.5 v -1.55 c 1.8,0.16 5.3,0.16 7.2,0.16 1.7,0 3.6,-0.06 5.7,-0.16 v 1.55 c -2.7,0 -3.7,0.2 -5.2,2.39 z"
           inkscape:connector-curvature="0"
           style="fill:#000000;stroke-width:0" /><path
           id="path6084"
           d="m 1168.5,350.22 0,-0.18 0,-0.19 0.1,-0.19 0,-0.18 0.1,-0.19 0,-0.18 0.1,-0.18 0,-0.18 0.1,-0.18 0.1,-0.17 0.1,-0.17 0.1,-0.17 0.1,-0.16 0.1,-0.16 0.1,-0.15 0.1,-0.15 0.1,-0.14 0.2,-0.14 0.1,-0.13 0.2,-0.12 0.1,-0.11 0.2,-0.11 0.1,-0.1 0.2,-0.09 0.2,-0.08 0.2,-0.07 0.1,-0.06 0.2,-0.05 0.2,-0.04 0.2,-0.03 0.2,-0.02 0.3,-0.01 c 1,0 4,0.71 4,4.74 v 2.78 h -1.2 v -2.78 c 0,-2.89 -1.2,-3.19 -1.8,-3.19 -1.6,0 -1.8,2.24 -1.8,2.49 v 9.96 c 0,2.1 0,4.04 -1.8,5.88 -2,1.94 -4.5,2.73 -6.9,2.73 -4.1,0 -7.5,-2.32 -7.5,-5.62 0,-1.49 1,-2.34 2.3,-2.34 1.4,0 2.3,1 2.3,2.29 0,0.6 -0.2,2.24 -2.5,2.3 1.3,1.73 3.7,2.28 5.3,2.28 2.5,0 5.3,-1.94 5.3,-6.37 v -1.85 -1.05 -4.98 c 0,-4.73 -3.6,-6.42 -5.8,-6.42 -2.5,0 -4.5,1.75 -4.5,4.23 0,2.74 2.1,6.88 10.3,7.17 h 0 v 1.05 c -2.5,-0.14 -6,-0.3 -9.1,-1.8 -3.8,-1.68 -5,-4.28 -5,-6.46 0,-4.04 4.8,-5.29 7.9,-5.29 3.3,0 5.6,1.99 6.6,4.33 z"
           inkscape:connector-curvature="0"
           style="fill:#000000;stroke-width:0" /><path
           id="path6086"
           d="m 1185.2,362.99 v 5.47 l -7,-0.55 v -1.55 c 3.5,0 3.9,-0.34 3.9,-2.78 v -13.36 c 0,-2.23 -0.5,-2.23 -3.9,-2.23 v -1.55 c 2,0.05 4.3,0.16 5.7,0.16 2,0 4.3,0 6.3,-0.16 v 1.55 h -1 c -3.7,0 -3.8,0.55 -3.8,2.34 V 358 c 0,4.93 2.1,9.36 5.9,9.36 0.3,0 0.4,0 0.5,-0.04 -0.1,-0.05 -1.1,-0.64 -1.1,-1.94 0,-1.41 1,-2.14 2.1,-2.14 0.9,0 2.2,0.59 2.2,2.19 0,1.59 -1.6,3.03 -3.7,3.03 -3.6,0 -5.5,-3.33 -6.1,-5.47 z"
           inkscape:connector-curvature="0"
           style="fill:#000000;stroke-width:0" /><path
           id="path6088"
           d="m 1205,366.36 h 7.1 v 1.55 h -7.1 v 9.17 h -1.2 c -0.1,-4.08 -1.6,-9.42 -6.5,-9.61 v -1.11 h 4.3 v -13.75 c 0,-6.12 4.6,-6.72 6.4,-6.72 3.5,0 4.9,3.54 4.9,6.72 v 2.85 h -1.2 v -2.74 c 0,-3.68 -1.5,-5.58 -3.4,-5.58 -3.3,0 -3.3,4.54 -3.3,5.38 z"
           inkscape:connector-curvature="0"
           style="fill:#000000;stroke-width:0" /><path
           id="path6090"
           d="m 1221.2,350.22 0,-0.1 0,-0.1 0,-0.19 0,-0.18 0,-0.16 0,-0.16 -0.1,-0.14 0,-0.14 0,-0.12 -0.1,-0.11 0,-0.11 -0.1,-0.09 -0.1,-0.09 0,-0.07 -0.1,-0.07 -0.1,-0.07 -0.1,-0.05 -0.1,-0.05 -0.1,-0.04 -0.2,-0.04 -0.1,-0.03 -0.1,-0.03 -0.2,-0.02 -0.2,-0.02 -0.1,-0.01 -0.1,-0.01 -0.1,0 -0.1,-0.01 -0.1,0 -0.1,-0.01 -0.1,0 -0.1,0 -0.1,-0.01 -0.2,0 -0.1,0 -0.1,0 -0.2,0 -0.1,0 -0.1,0 -0.2,0 -0.1,0 -0.2,0 v -1.55 c 1.8,0.05 4.3,0.16 5.6,0.16 1.3,0 3.9,-0.11 5.6,-0.16 v 1.55 c -3.3,0 -3.9,0 -3.9,2.23 v 9.17 c 0,5.19 3.6,7.97 6.7,7.97 3.2,0 3.7,-2.68 3.7,-5.53 v -11.61 c 0,-2.23 -0.5,-2.23 -3.8,-2.23 v -1.55 c 1.7,0.05 4.2,0.16 5.6,0.16 1.3,0 3.9,-0.11 5.6,-0.16 v 1.55 c -2.6,0 -3.9,0 -3.9,1.5 V 359 c 0,4.29 0,5.83 -1.6,7.61 -0.7,0.86 -2.3,1.85 -5.2,1.85 -4.2,0 -6.4,-2.99 -7.2,-4.88 v 17.44 l -7.2,-0.55 v -1.54 c 3.5,0 3.9,-0.35 3.9,-2.8 z"
           inkscape:connector-curvature="0"
           style="fill:#000000;stroke-width:0" /><path
           id="path6092"
           d="m 1249,357.96 h 13.9 c 1.1,0 1.2,0 1.2,1.04 0,4.93 -2.7,9.75 -8.9,9.75 -5.8,0 -10.4,-5.12 -10.4,-11.36 0,-6.67 5.3,-11.5 11,-11.5 6.1,0 8.3,5.54 8.3,6.47 0,0.5 -0.4,0.61 -0.6,0.61 -0.5,0 -0.6,-0.29 -0.7,-0.7 -1.7,-5.13 -6.2,-5.13 -6.7,-5.13 -2.5,0 -4.5,1.49 -5.6,3.33 -1.5,2.39 -1.5,5.69 -1.5,7.49 l 0,1.04 c 0.3,7.43 4.5,8.66 6.2,8.66 5.1,0 5.6,-6.72 5.6,-8.66 H 1249 l 0,-1.04 z"
           inkscape:connector-curvature="0"
           style="fill:#000000;stroke-width:0" /><path
           id="path6094"
           d="m 1275.9,356.11 0.1,-0.02 0.1,-0.02 0.1,-0.03 0.2,-0.04 0.2,-0.03 0.2,-0.05 0.1,-0.05 0.2,-0.06 0.2,-0.06 0.3,-0.07 0.2,-0.08 0.2,-0.08 0.2,-0.1 0.2,-0.1 0.3,-0.11 0.2,-0.12 0.2,-0.13 0.2,-0.15 0.2,-0.15 0.2,-0.16 0.2,-0.18 0.2,-0.18 0.1,-0.2 0.2,-0.22 0.1,-0.22 0.1,-0.12 0.1,-0.12 0,-0.12 0.1,-0.13 0,-0.13 0.1,-0.14 0,-0.14 0,-0.14 0.1,-0.15 0,-0.15 0,-0.15 0,-0.16 0,-0.16 0.1,-0.17 c 0,-2.53 -1.8,-4.53 -5.7,-4.53 -4.2,0 -6,2.84 -6.9,7.08 -0.2,0.64 -0.2,0.84 -0.7,0.84 -0.6,0 -0.6,-0.34 -0.6,-1.25 v -6.58 c 0,-0.84 0,-1.19 0.5,-1.19 0.2,0 0.3,0.05 1.2,1 0.1,0.1 0.1,0.19 1,1.15 2.2,-2.1 4.5,-2.15 5.5,-2.15 5.8,0 8,3.35 8,6.93 0,2.64 -1.5,4.14 -2.1,4.73 -1.6,1.59 -3.5,2 -5.6,2.39 -2.8,0.55 -6.2,1.2 -6.2,4.1 0,1.73 1.3,3.78 5.6,3.78 5.5,0 5.7,-4.49 5.8,-6.03 0.1,-0.46 0.5,-0.46 0.7,-0.46 0.6,0 0.6,0.25 0.6,1.21 v 5.03 c 0,0.84 0,1.18 -0.5,1.18 -0.3,0 -0.4,0 -1,-0.59 -0.2,-0.2 -0.7,-0.64 -0.9,-0.8 -1.9,1.39 -3.9,1.39 -4.7,1.39 -6.1,0 -7.9,-3.32 -7.9,-6.12 0,-1.74 0.7,-3.14 2.1,-4.24 1.6,-1.29 3,-1.59 6.6,-2.28 z"
           inkscape:connector-curvature="0"
           style="fill:#000000;stroke-width:0" /><path
           id="path6096"
           d="m 1294,368.46 -7,-0.55 v -1.55 c 3.3,0 3.7,-0.29 3.7,-2.73 v -13.41 c 0,-2.23 -0.5,-2.23 -3.9,-2.23 v -1.55 c 1.6,0.05 4.3,0.16 5.5,0.16 1.8,0 3.5,-0.11 5.2,-0.16 v 1.55 c -3.3,0 -3.5,0.25 -3.5,2.19 z"
           inkscape:connector-curvature="0"
           style="fill:#000000;stroke-width:0" /><path
           id="path6098"
           d="m 1294.2,377.13 0,0.15 0,0.14 0,0.14 -0.1,0.14 0,0.13 0,0.13 -0.1,0.13 0,0.12 -0.1,0.12 0,0.12 -0.1,0.11 -0.1,0.11 0,0.1 -0.1,0.1 -0.1,0.09 -0.1,0.09 -0.1,0.08 -0.1,0.08 -0.1,0.08 -0.1,0.06 -0.1,0.07 -0.1,0.06 -0.1,0.05 -0.1,0.05 -0.2,0.04 -0.1,0.04 -0.1,0.04 -0.1,0.02 -0.2,0.02 -0.1,0.02 -0.1,0.01 -0.1,0 c -1.6,0 -2.7,-1.34 -2.7,-2.64 0,-1.34 1.1,-2.64 2.7,-2.64 1.3,0 2.6,1.05 2.6,2.64 z"
           inkscape:connector-curvature="0"
           style="fill:#000000;stroke-width:0" /><path
           id="path6100"
           d="m 1309.3,356.11 0.2,-0.02 0.1,-0.02 0.1,-0.03 0.2,-0.04 0.1,-0.03 0.2,-0.05 0.2,-0.05 0.2,-0.06 0.2,-0.06 0.2,-0.07 0.2,-0.08 0.3,-0.08 0.2,-0.1 0.2,-0.1 0.2,-0.11 0.2,-0.12 0.3,-0.13 0.2,-0.15 0.2,-0.15 0.2,-0.16 0.2,-0.18 0.1,-0.18 0.2,-0.2 0.2,-0.22 0.1,-0.22 0.1,-0.12 0,-0.12 0.1,-0.12 0.1,-0.13 0,-0.13 0.1,-0.14 0,-0.14 0,-0.14 0.1,-0.15 0,-0.15 0,-0.15 0,-0.16 0,-0.16 0,-0.17 c 0,-2.53 -1.7,-4.53 -5.6,-4.53 -4.2,0 -6,2.84 -6.9,7.08 -0.2,0.64 -0.2,0.84 -0.7,0.84 -0.7,0 -0.7,-0.34 -0.7,-1.25 v -6.58 c 0,-0.84 0,-1.19 0.6,-1.19 0.2,0 0.3,0.05 1.2,1 0.1,0.1 0.1,0.19 1,1.15 2.2,-2.1 4.5,-2.15 5.5,-2.15 5.7,0 8,3.35 8,6.93 0,2.64 -1.5,4.14 -2.1,4.73 -1.6,1.59 -3.6,2 -5.7,2.39 -2.7,0.55 -6.1,1.2 -6.1,4.1 0,1.73 1.3,3.78 5.6,3.78 5.5,0 5.7,-4.49 5.8,-6.03 0.1,-0.46 0.5,-0.46 0.6,-0.46 0.7,0 0.7,0.25 0.7,1.21 v 5.03 c 0,0.84 0,1.18 -0.6,1.18 -0.2,0 -0.3,0 -1,-0.59 -0.1,-0.2 -0.6,-0.64 -0.8,-0.8 -1.9,1.39 -4,1.39 -4.7,1.39 -6.1,0 -8,-3.32 -8,-6.12 0,-1.74 0.8,-3.14 2.2,-4.24 1.6,-1.29 3,-1.59 6.5,-2.28 z"
           inkscape:connector-curvature="0"
           style="fill:#000000;stroke-width:0" /><path
           id="path6102"
           d="m 1324.5,357.3 0,0.38 0,0.37 0,0.35 0,0.35 0.1,0.35 0,0.33 0,0.33 0.1,0.31 0,0.31 0.1,0.3 0,0.3 0.1,0.28 0.1,0.55 0.2,0.52 0.1,0.48 0.2,0.46 0.2,0.43 0.2,0.4 0.2,0.38 0.3,0.35 0.2,0.33 0.3,0.3 0.2,0.27 0.3,0.26 0.3,0.23 0.2,0.21 0.3,0.19 0.3,0.17 0.3,0.15 0.3,0.13 0.2,0.11 0.3,0.09 0.3,0.08 0.3,0.06 0.3,0.05 0.2,0.03 0.3,0.02 0.2,0.01 c 0.5,0 3.6,-0.05 5.4,-1.84 -2.1,-0.16 -2.4,-1.64 -2.4,-2.3 0,-1.3 0.9,-2.3 2.3,-2.3 1.3,0 2.3,0.86 2.3,2.35 0,3.39 -3.8,5.32 -7.6,5.32 -6.3,0 -10.9,-5.37 -10.9,-11.54 0,-6.38 5,-11.32 10.8,-11.32 6.6,0 8.2,5.99 8.2,6.47 0,0.5 -0.5,0.5 -0.6,0.5 -0.5,0 -0.5,-0.18 -0.7,-0.5 -1.4,-4.62 -4.6,-5.22 -6.5,-5.22 -2.6,0 -7,2.15 -7,10.16 z"
           inkscape:connector-curvature="0"
           style="fill:#000000;stroke-width:0" /><path
           id="path6104"
           d="m 1344.8,350.22 0,-0.1 0,-0.1 0,-0.19 0,-0.18 0,-0.16 -0.1,-0.16 0,-0.14 0,-0.14 0,-0.12 -0.1,-0.11 0,-0.11 -0.1,-0.09 -0.1,-0.09 0,-0.07 -0.1,-0.07 -0.1,-0.07 -0.1,-0.05 -0.1,-0.05 -0.1,-0.04 -0.2,-0.04 -0.1,-0.03 -0.2,-0.03 -0.1,-0.02 -0.2,-0.02 -0.1,-0.01 -0.1,-0.01 -0.1,0 -0.1,-0.01 -0.1,0 -0.1,-0.01 -0.1,0 -0.1,0 -0.2,-0.01 -0.1,0 -0.1,0 -0.1,0 -0.2,0 -0.1,0 -0.2,0 -0.1,0 -0.2,0 -0.1,0 v -1.55 c 1.7,0.05 4.3,0.16 5.6,0.16 1.3,0 3.9,-0.11 5.6,-0.16 v 1.55 c -3.3,0 -3.9,0 -3.9,2.23 v 9.17 c 0,5.19 3.6,7.97 6.7,7.97 3.2,0 3.7,-2.68 3.7,-5.53 v -11.61 c 0,-2.23 -0.5,-2.23 -3.9,-2.23 v -1.55 c 1.8,0.05 4.3,0.16 5.7,0.16 1.3,0 3.8,-0.11 5.6,-0.16 v 1.55 c -2.6,0 -3.9,0 -3.9,1.5 V 359 c 0,4.29 0,5.83 -1.6,7.61 -0.7,0.86 -2.3,1.85 -5.2,1.85 -4.2,0 -6.4,-2.99 -7.2,-4.88 v 17.44 l -7.2,-0.55 v -1.54 c 3.5,0 3.9,-0.35 3.9,-2.8 z"
           inkscape:connector-curvature="0"
           style="fill:#000000;stroke-width:0" /></g>    </g>
    <path
       id="path5443-6"
       d="m 954.16373,534.54835 h -0.9993 c -0.0833,0.67267 -0.41637,2.49596 -0.74947,2.80574 -0.24982,0.17702 -2.41496,0.17702 -2.83134,0.17702 h -5.41285 c 3.08116,-2.85885 4.08046,-3.71739 5.82923,-5.16893 2.16514,-1.82329 4.16373,-3.73509 4.16373,-6.66474 0,-3.73508 -3.08116,-6.01862 -6.82852,-6.01862 -3.58081,0 -5.99578,2.68183 -5.99578,5.51412 0,1.58431 1.24912,1.73478 1.58222,1.73478 0.6662,0 1.49894,-0.53106 1.49894,-1.63742 0,-0.54876 -0.24982,-1.62857 -1.74877,-1.62857 0.91603,-2.18618 2.91462,-2.85884 4.24701,-2.85884 2.91462,0 4.41356,2.38974 4.41356,4.89455 0,2.68183 -1.74877,4.80604 -2.74806,5.91241 l -6.9118,7.34625 c -0.3331,0.27438 -0.3331,0.34519 -0.3331,1.20373 h 11.99155 z"
       inkscape:connector-curvature="0"
       style="font-style:normal;font-variant:normal;font-weight:normal;font-stretch:normal;letter-spacing:normal;word-spacing:normal;text-anchor:start;fill:#000000;stroke:#000000;stroke-width:0;stroke-linecap:butt;stroke-linejoin:miter;stroke-miterlimit:10.43299961;stroke-opacity:1;stroke-dasharray:none;stroke-dashoffset:0" />
  </g>
</svg>
